<mxfile host="app.diagrams.net" modified="2022-01-23T08:41:08.281Z" agent="5.0 (Windows NT 10.0; Win64; x64) AppleWebKit/537.36 (KHTML, like Gecko) Chrome/96.0.4664.45 Safari/537.36" etag="BkstC5f-bBQModGjR5MK" version="15.9.1" type="github" pages="2">
  <diagram id="LnCz9KPRiTmUn6ycoiQr" name="Page-1">
    <mxGraphModel dx="3529" dy="2035" grid="1" gridSize="10" guides="1" tooltips="1" connect="1" arrows="1" fold="1" page="1" pageScale="1" pageWidth="827" pageHeight="1169" background="none" math="0" shadow="1">
      <root>
        <mxCell id="0" />
        <mxCell id="1" parent="0" />
        <mxCell id="yjKaeug779dqm2-OnKIs-48" style="edgeStyle=orthogonalEdgeStyle;orthogonalLoop=1;jettySize=auto;html=1;exitX=1;exitY=0.5;exitDx=0;exitDy=0;entryX=0;entryY=0.5;entryDx=0;entryDy=0;" parent="1" source="sVvuRPS51YxR54ulRC8M-2" target="sVvuRPS51YxR54ulRC8M-5" edge="1">
          <mxGeometry relative="1" as="geometry" />
        </mxCell>
        <mxCell id="sVvuRPS51YxR54ulRC8M-2" value="用户合约" style="swimlane;rounded=1;" parent="1" vertex="1">
          <mxGeometry x="-60" y="-690" width="110" height="160" as="geometry" />
        </mxCell>
        <mxCell id="yjKaeug779dqm2-OnKIs-6" value="&lt;div style=&quot;text-align: left&quot;&gt;&lt;span&gt;userId&lt;/span&gt;&lt;/div&gt;&lt;div style=&quot;text-align: left&quot;&gt;&lt;span&gt;comboId&lt;/span&gt;&lt;/div&gt;&lt;div style=&quot;text-align: left&quot;&gt;&lt;span&gt;price_id&lt;/span&gt;&lt;/div&gt;&lt;div style=&quot;text-align: left&quot;&gt;&lt;span&gt;价格明细&lt;/span&gt;&lt;/div&gt;&lt;div style=&quot;text-align: left&quot;&gt;combo明细&lt;br&gt;pay_platform&lt;br&gt;no&lt;br&gt;platform_id&lt;br&gt;status&lt;/div&gt;" style="text;html=1;align=center;verticalAlign=middle;resizable=0;points=[];autosize=1;strokeColor=none;rounded=1;" parent="sVvuRPS51YxR54ulRC8M-2" vertex="1">
          <mxGeometry y="30" width="80" height="130" as="geometry" />
        </mxCell>
        <mxCell id="sVvuRPS51YxR54ulRC8M-3" value="combo系统权限" style="swimlane;startSize=20;rounded=1;" parent="1" vertex="1">
          <mxGeometry x="165.5" y="-895" width="137" height="140" as="geometry" />
        </mxCell>
        <mxCell id="yjKaeug779dqm2-OnKIs-5" value="系统Id&lt;br&gt;comboId&lt;br&gt;permission" style="text;html=1;align=left;verticalAlign=middle;resizable=0;points=[];autosize=1;strokeColor=none;rounded=1;" parent="sVvuRPS51YxR54ulRC8M-3" vertex="1">
          <mxGeometry x="14.5" y="35" width="70" height="50" as="geometry" />
        </mxCell>
        <mxCell id="yjKaeug779dqm2-OnKIs-47" style="edgeStyle=orthogonalEdgeStyle;orthogonalLoop=1;jettySize=auto;html=1;exitX=1;exitY=0.5;exitDx=0;exitDy=0;entryX=0;entryY=0.5;entryDx=0;entryDy=0;" parent="1" source="sVvuRPS51YxR54ulRC8M-4" target="sVvuRPS51YxR54ulRC8M-3" edge="1">
          <mxGeometry relative="1" as="geometry" />
        </mxCell>
        <mxCell id="yjKaeug779dqm2-OnKIs-63" value="1;1" style="edgeLabel;html=1;align=center;verticalAlign=middle;resizable=0;points=[];rounded=1;" parent="yjKaeug779dqm2-OnKIs-47" vertex="1" connectable="0">
          <mxGeometry x="-0.1861" relative="1" as="geometry">
            <mxPoint as="offset" />
          </mxGeometry>
        </mxCell>
        <mxCell id="yjKaeug779dqm2-OnKIs-64" value="1;N" style="edgeLabel;html=1;align=center;verticalAlign=middle;resizable=0;points=[];rounded=1;" parent="yjKaeug779dqm2-OnKIs-47" vertex="1" connectable="0">
          <mxGeometry x="-0.1861" y="2" relative="1" as="geometry">
            <mxPoint as="offset" />
          </mxGeometry>
        </mxCell>
        <mxCell id="yjKaeug779dqm2-OnKIs-49" style="edgeStyle=orthogonalEdgeStyle;orthogonalLoop=1;jettySize=auto;html=1;" parent="1" source="sVvuRPS51YxR54ulRC8M-4" target="sVvuRPS51YxR54ulRC8M-2" edge="1">
          <mxGeometry relative="1" as="geometry" />
        </mxCell>
        <mxCell id="yjKaeug779dqm2-OnKIs-50" style="edgeStyle=orthogonalEdgeStyle;orthogonalLoop=1;jettySize=auto;html=1;entryX=1;entryY=0.5;entryDx=0;entryDy=0;" parent="1" source="sVvuRPS51YxR54ulRC8M-4" target="yjKaeug779dqm2-OnKIs-8" edge="1">
          <mxGeometry relative="1" as="geometry" />
        </mxCell>
        <mxCell id="yjKaeug779dqm2-OnKIs-51" value="1:n" style="edgeLabel;html=1;align=center;verticalAlign=middle;resizable=0;points=[];rounded=1;" parent="yjKaeug779dqm2-OnKIs-50" vertex="1" connectable="0">
          <mxGeometry x="0.2211" y="4" relative="1" as="geometry">
            <mxPoint as="offset" />
          </mxGeometry>
        </mxCell>
        <mxCell id="sVvuRPS51YxR54ulRC8M-4" value="combo" style="swimlane;startSize=20;rounded=1;" parent="1" vertex="1">
          <mxGeometry x="-60" y="-890" width="110" height="130" as="geometry" />
        </mxCell>
        <mxCell id="yjKaeug779dqm2-OnKIs-2" value="名称&lt;br&gt;描述&lt;br&gt;" style="text;html=1;align=left;verticalAlign=middle;resizable=0;points=[];autosize=1;strokeColor=none;rounded=1;" parent="sVvuRPS51YxR54ulRC8M-4" vertex="1">
          <mxGeometry x="10" y="40" width="40" height="30" as="geometry" />
        </mxCell>
        <mxCell id="sVvuRPS51YxR54ulRC8M-5" value="支付明细" style="swimlane;startSize=20;rounded=1;" parent="1" vertex="1">
          <mxGeometry x="165.5" y="-665" width="110" height="110" as="geometry" />
        </mxCell>
        <mxCell id="yjKaeug779dqm2-OnKIs-10" value="合约id&lt;br&gt;期数&lt;br&gt;gmv&lt;br&gt;状态&lt;br&gt;paltform_id" style="text;html=1;align=left;verticalAlign=middle;resizable=0;points=[];autosize=1;strokeColor=none;rounded=1;" parent="sVvuRPS51YxR54ulRC8M-5" vertex="1">
          <mxGeometry x="10" y="25" width="70" height="80" as="geometry" />
        </mxCell>
        <mxCell id="yjKaeug779dqm2-OnKIs-57" style="edgeStyle=orthogonalEdgeStyle;orthogonalLoop=1;jettySize=auto;html=1;entryX=0.5;entryY=0;entryDx=0;entryDy=0;" parent="1" source="yjKaeug779dqm2-OnKIs-8" target="yjKaeug779dqm2-OnKIs-52" edge="1">
          <mxGeometry relative="1" as="geometry" />
        </mxCell>
        <mxCell id="yjKaeug779dqm2-OnKIs-8" value="combo_price" style="swimlane;startSize=20;rounded=1;" parent="1" vertex="1">
          <mxGeometry x="-270" y="-890" width="115" height="130" as="geometry" />
        </mxCell>
        <mxCell id="yjKaeug779dqm2-OnKIs-9" value="combo_id&lt;br&gt;周期&lt;br&gt;期数&lt;br&gt;价格&lt;br&gt;抽佣比例&lt;br&gt;" style="text;html=1;align=left;verticalAlign=middle;resizable=0;points=[];autosize=1;strokeColor=none;rounded=1;" parent="yjKaeug779dqm2-OnKIs-8" vertex="1">
          <mxGeometry x="12.5" y="25" width="70" height="80" as="geometry" />
        </mxCell>
        <mxCell id="yjKaeug779dqm2-OnKIs-29" value="" style="edgeStyle=orthogonalEdgeStyle;orthogonalLoop=1;jettySize=auto;html=1;" parent="1" source="yjKaeug779dqm2-OnKIs-27" target="yjKaeug779dqm2-OnKIs-28" edge="1">
          <mxGeometry relative="1" as="geometry" />
        </mxCell>
        <mxCell id="yjKaeug779dqm2-OnKIs-27" value="combo" style="whiteSpace=wrap;html=1;rounded=1;" parent="1" vertex="1">
          <mxGeometry x="-760" y="-890" width="70" height="40" as="geometry" />
        </mxCell>
        <mxCell id="yjKaeug779dqm2-OnKIs-28" value="product" style="whiteSpace=wrap;html=1;rounded=1;" parent="1" vertex="1">
          <mxGeometry x="-580" y="-890" width="85" height="40" as="geometry" />
        </mxCell>
        <mxCell id="yjKaeug779dqm2-OnKIs-30" value="" style="edgeStyle=orthogonalEdgeStyle;orthogonalLoop=1;jettySize=auto;html=1;" parent="1" source="yjKaeug779dqm2-OnKIs-31" target="yjKaeug779dqm2-OnKIs-32" edge="1">
          <mxGeometry relative="1" as="geometry" />
        </mxCell>
        <mxCell id="yjKaeug779dqm2-OnKIs-31" value="combo&amp;nbsp; price" style="whiteSpace=wrap;html=1;rounded=1;" parent="1" vertex="1">
          <mxGeometry x="-760" y="-830" width="70" height="40" as="geometry" />
        </mxCell>
        <mxCell id="yjKaeug779dqm2-OnKIs-32" value="price" style="whiteSpace=wrap;html=1;rounded=1;" parent="1" vertex="1">
          <mxGeometry x="-580" y="-830" width="85" height="40" as="geometry" />
        </mxCell>
        <mxCell id="yjKaeug779dqm2-OnKIs-33" value="" style="edgeStyle=orthogonalEdgeStyle;orthogonalLoop=1;jettySize=auto;html=1;" parent="1" source="yjKaeug779dqm2-OnKIs-34" target="yjKaeug779dqm2-OnKIs-35" edge="1">
          <mxGeometry relative="1" as="geometry" />
        </mxCell>
        <mxCell id="yjKaeug779dqm2-OnKIs-34" value="user" style="whiteSpace=wrap;html=1;rounded=1;" parent="1" vertex="1">
          <mxGeometry x="-760" y="-770" width="70" height="40" as="geometry" />
        </mxCell>
        <mxCell id="yjKaeug779dqm2-OnKIs-35" value="customer" style="whiteSpace=wrap;html=1;rounded=1;" parent="1" vertex="1">
          <mxGeometry x="-580" y="-770" width="85" height="40" as="geometry" />
        </mxCell>
        <mxCell id="yjKaeug779dqm2-OnKIs-36" value="" style="edgeStyle=orthogonalEdgeStyle;orthogonalLoop=1;jettySize=auto;html=1;" parent="1" source="yjKaeug779dqm2-OnKIs-37" target="yjKaeug779dqm2-OnKIs-38" edge="1">
          <mxGeometry relative="1" as="geometry" />
        </mxCell>
        <mxCell id="yjKaeug779dqm2-OnKIs-37" value="合约" style="whiteSpace=wrap;html=1;rounded=1;" parent="1" vertex="1">
          <mxGeometry x="-760" y="-700" width="70" height="40" as="geometry" />
        </mxCell>
        <mxCell id="yjKaeug779dqm2-OnKIs-38" value="subscription" style="whiteSpace=wrap;html=1;rounded=1;" parent="1" vertex="1">
          <mxGeometry x="-580" y="-700" width="85" height="40" as="geometry" />
        </mxCell>
        <mxCell id="yjKaeug779dqm2-OnKIs-39" value="" style="edgeStyle=orthogonalEdgeStyle;orthogonalLoop=1;jettySize=auto;html=1;" parent="1" source="yjKaeug779dqm2-OnKIs-40" target="yjKaeug779dqm2-OnKIs-41" edge="1">
          <mxGeometry relative="1" as="geometry" />
        </mxCell>
        <mxCell id="yjKaeug779dqm2-OnKIs-40" value="订单" style="whiteSpace=wrap;html=1;rounded=1;" parent="1" vertex="1">
          <mxGeometry x="-760" y="-640" width="70" height="40" as="geometry" />
        </mxCell>
        <mxCell id="yjKaeug779dqm2-OnKIs-41" value="invoice" style="whiteSpace=wrap;html=1;rounded=1;" parent="1" vertex="1">
          <mxGeometry x="-580" y="-640" width="85" height="40" as="geometry" />
        </mxCell>
        <mxCell id="yjKaeug779dqm2-OnKIs-42" value="平台" style="text;html=1;align=center;verticalAlign=middle;resizable=0;points=[];autosize=1;strokeColor=none;rounded=1;" parent="1" vertex="1">
          <mxGeometry x="-745" y="-920" width="40" height="20" as="geometry" />
        </mxCell>
        <mxCell id="yjKaeug779dqm2-OnKIs-43" value="stripe" style="text;html=1;align=center;verticalAlign=middle;resizable=0;points=[];autosize=1;strokeColor=none;rounded=1;" parent="1" vertex="1">
          <mxGeometry x="-560" y="-920" width="40" height="20" as="geometry" />
        </mxCell>
        <mxCell id="yjKaeug779dqm2-OnKIs-52" value="price_rel_id" style="swimlane;startSize=20;rounded=1;" parent="1" vertex="1">
          <mxGeometry x="-270" y="-690" width="115" height="130" as="geometry" />
        </mxCell>
        <mxCell id="yjKaeug779dqm2-OnKIs-53" value="price_id&lt;br&gt;platform&lt;br&gt;rel_id" style="text;html=1;align=left;verticalAlign=middle;resizable=0;points=[];autosize=1;strokeColor=none;rounded=1;" parent="yjKaeug779dqm2-OnKIs-52" vertex="1">
          <mxGeometry x="10" y="40" width="60" height="50" as="geometry" />
        </mxCell>
        <mxCell id="yjKaeug779dqm2-OnKIs-58" value="1:n" style="edgeStyle=orthogonalEdgeStyle;orthogonalLoop=1;jettySize=auto;html=1;exitX=0.5;exitY=1;exitDx=0;exitDy=0;entryX=0.5;entryY=0;entryDx=0;entryDy=0;" parent="1" source="yjKaeug779dqm2-OnKIs-54" target="sVvuRPS51YxR54ulRC8M-4" edge="1">
          <mxGeometry relative="1" as="geometry" />
        </mxCell>
        <mxCell id="yjKaeug779dqm2-OnKIs-54" value="combo_rel_id" style="swimlane;startSize=20;rounded=1;" parent="1" vertex="1">
          <mxGeometry x="-170" y="-1080" width="110" height="120" as="geometry" />
        </mxCell>
        <mxCell id="yjKaeug779dqm2-OnKIs-55" value="combo_id&lt;br&gt;platform&lt;br&gt;rel_id" style="text;html=1;align=left;verticalAlign=middle;resizable=0;points=[];autosize=1;strokeColor=none;rounded=1;" parent="yjKaeug779dqm2-OnKIs-54" vertex="1">
          <mxGeometry x="5" y="30" width="70" height="50" as="geometry" />
        </mxCell>
        <mxCell id="yjKaeug779dqm2-OnKIs-61" style="edgeStyle=orthogonalEdgeStyle;orthogonalLoop=1;jettySize=auto;html=1;exitX=0.5;exitY=1;exitDx=0;exitDy=0;entryX=0.5;entryY=0;entryDx=0;entryDy=0;" parent="1" source="yjKaeug779dqm2-OnKIs-59" target="sVvuRPS51YxR54ulRC8M-4" edge="1">
          <mxGeometry relative="1" as="geometry" />
        </mxCell>
        <mxCell id="yjKaeug779dqm2-OnKIs-62" value="1:n" style="edgeLabel;html=1;align=center;verticalAlign=middle;resizable=0;points=[];rounded=1;" parent="yjKaeug779dqm2-OnKIs-61" vertex="1" connectable="0">
          <mxGeometry x="-0.24" y="2" relative="1" as="geometry">
            <mxPoint as="offset" />
          </mxGeometry>
        </mxCell>
        <mxCell id="yjKaeug779dqm2-OnKIs-59" value="combo_log" style="swimlane;startSize=20;rounded=1;" parent="1" vertex="1">
          <mxGeometry x="70" y="-1090" width="110" height="130" as="geometry" />
        </mxCell>
        <mxCell id="yjKaeug779dqm2-OnKIs-60" value="combo_id&lt;br&gt;from&lt;br&gt;to" style="text;html=1;align=left;verticalAlign=middle;resizable=0;points=[];autosize=1;strokeColor=none;rounded=1;" parent="yjKaeug779dqm2-OnKIs-59" vertex="1">
          <mxGeometry x="5" y="30" width="70" height="50" as="geometry" />
        </mxCell>
        <mxCell id="gQ9e6RJ-nowYOAhNkG7h-9" value="价格Id&lt;br&gt;优惠券码" style="edgeStyle=orthogonalEdgeStyle;orthogonalLoop=1;jettySize=auto;html=1;fontSize=14;" parent="1" source="gQ9e6RJ-nowYOAhNkG7h-2" target="gQ9e6RJ-nowYOAhNkG7h-8" edge="1">
          <mxGeometry relative="1" as="geometry" />
        </mxCell>
        <mxCell id="gQ9e6RJ-nowYOAhNkG7h-2" value="确认下单" style="strokeWidth=2;html=1;shape=mxgraph.flowchart.start_1;whiteSpace=wrap;direction=west;rounded=1;" parent="1" vertex="1">
          <mxGeometry x="-770" y="-390" width="70" height="40" as="geometry" />
        </mxCell>
        <mxCell id="gQ9e6RJ-nowYOAhNkG7h-3" value="&lt;b&gt;&lt;font style=&quot;font-size: 14px&quot;&gt;用户确认下单&lt;/font&gt;&lt;/b&gt;" style="text;html=1;align=center;verticalAlign=middle;resizable=0;points=[];autosize=1;strokeColor=none;fillColor=none;rounded=1;" parent="1" vertex="1">
          <mxGeometry x="-825" y="-440" width="100" height="20" as="geometry" />
        </mxCell>
        <mxCell id="gQ9e6RJ-nowYOAhNkG7h-11" value="" style="edgeStyle=orthogonalEdgeStyle;orthogonalLoop=1;jettySize=auto;html=1;fontSize=14;" parent="1" source="gQ9e6RJ-nowYOAhNkG7h-8" target="gQ9e6RJ-nowYOAhNkG7h-10" edge="1">
          <mxGeometry relative="1" as="geometry" />
        </mxCell>
        <mxCell id="gQ9e6RJ-nowYOAhNkG7h-8" value="创建待支付合约" style="whiteSpace=wrap;html=1;strokeWidth=2;rounded=1;" parent="1" vertex="1">
          <mxGeometry x="-605" y="-395" width="85" height="50" as="geometry" />
        </mxCell>
        <mxCell id="gQ9e6RJ-nowYOAhNkG7h-23" value="" style="edgeStyle=orthogonalEdgeStyle;orthogonalLoop=1;jettySize=auto;html=1;fontSize=14;" parent="1" source="gQ9e6RJ-nowYOAhNkG7h-10" target="gQ9e6RJ-nowYOAhNkG7h-22" edge="1">
          <mxGeometry relative="1" as="geometry" />
        </mxCell>
        <mxCell id="gQ9e6RJ-nowYOAhNkG7h-51" style="edgeStyle=orthogonalEdgeStyle;orthogonalLoop=1;jettySize=auto;html=1;exitX=1;exitY=0.5;exitDx=0;exitDy=0;entryX=1;entryY=0.5;entryDx=0;entryDy=0;fontSize=14;" parent="1" source="gQ9e6RJ-nowYOAhNkG7h-10" target="gQ9e6RJ-nowYOAhNkG7h-40" edge="1">
          <mxGeometry relative="1" as="geometry">
            <Array as="points">
              <mxPoint x="-420" y="-270" />
              <mxPoint x="-420" y="350" />
            </Array>
          </mxGeometry>
        </mxCell>
        <mxCell id="gQ9e6RJ-nowYOAhNkG7h-52" value="是" style="edgeLabel;html=1;align=center;verticalAlign=middle;resizable=0;points=[];fontSize=14;rounded=1;" parent="gQ9e6RJ-nowYOAhNkG7h-51" vertex="1" connectable="0">
          <mxGeometry x="-0.7625" y="1" relative="1" as="geometry">
            <mxPoint as="offset" />
          </mxGeometry>
        </mxCell>
        <mxCell id="gQ9e6RJ-nowYOAhNkG7h-10" value="校验用户&lt;br&gt;是否购买合约" style="rhombus;whiteSpace=wrap;html=1;strokeWidth=2;rounded=1;" parent="1" vertex="1">
          <mxGeometry x="-606.25" y="-310" width="87.5" height="80" as="geometry" />
        </mxCell>
        <mxCell id="gQ9e6RJ-nowYOAhNkG7h-24" style="edgeStyle=orthogonalEdgeStyle;orthogonalLoop=1;jettySize=auto;html=1;exitX=1;exitY=0.5;exitDx=0;exitDy=0;entryX=1;entryY=0.5;entryDx=0;entryDy=0;fontSize=14;" parent="1" source="gQ9e6RJ-nowYOAhNkG7h-22" target="gQ9e6RJ-nowYOAhNkG7h-40" edge="1">
          <mxGeometry relative="1" as="geometry">
            <Array as="points">
              <mxPoint x="-450" y="-150" />
              <mxPoint x="-450" y="350" />
            </Array>
          </mxGeometry>
        </mxCell>
        <mxCell id="gQ9e6RJ-nowYOAhNkG7h-25" value="否" style="edgeLabel;html=1;align=center;verticalAlign=middle;resizable=0;points=[];fontSize=14;rounded=1;" parent="gQ9e6RJ-nowYOAhNkG7h-24" vertex="1" connectable="0">
          <mxGeometry x="-0.7281" y="1" relative="1" as="geometry">
            <mxPoint as="offset" />
          </mxGeometry>
        </mxCell>
        <mxCell id="gQ9e6RJ-nowYOAhNkG7h-27" value="" style="edgeStyle=orthogonalEdgeStyle;orthogonalLoop=1;jettySize=auto;html=1;fontSize=14;entryX=0.5;entryY=0;entryDx=0;entryDy=0;" parent="1" source="gQ9e6RJ-nowYOAhNkG7h-22" target="gQ9e6RJ-nowYOAhNkG7h-30" edge="1">
          <mxGeometry relative="1" as="geometry">
            <mxPoint x="-562.4000000000001" y="-79.90857142857158" as="targetPoint" />
          </mxGeometry>
        </mxCell>
        <mxCell id="gQ9e6RJ-nowYOAhNkG7h-22" value="校验价格&lt;br&gt;校验优惠" style="rhombus;whiteSpace=wrap;html=1;strokeWidth=2;rounded=1;" parent="1" vertex="1">
          <mxGeometry x="-606.25" y="-190" width="87.5" height="80" as="geometry" />
        </mxCell>
        <mxCell id="gQ9e6RJ-nowYOAhNkG7h-33" value="" style="edgeStyle=orthogonalEdgeStyle;orthogonalLoop=1;jettySize=auto;html=1;fontSize=14;" parent="1" source="gQ9e6RJ-nowYOAhNkG7h-30" target="gQ9e6RJ-nowYOAhNkG7h-32" edge="1">
          <mxGeometry relative="1" as="geometry" />
        </mxCell>
        <mxCell id="gQ9e6RJ-nowYOAhNkG7h-30" value="计算优惠" style="whiteSpace=wrap;html=1;strokeWidth=2;rounded=1;" parent="1" vertex="1">
          <mxGeometry x="-623.75" y="-60" width="122.5" height="50" as="geometry" />
        </mxCell>
        <mxCell id="gQ9e6RJ-nowYOAhNkG7h-35" value="" style="edgeStyle=orthogonalEdgeStyle;orthogonalLoop=1;jettySize=auto;html=1;fontSize=14;" parent="1" source="gQ9e6RJ-nowYOAhNkG7h-32" target="gQ9e6RJ-nowYOAhNkG7h-34" edge="1">
          <mxGeometry relative="1" as="geometry" />
        </mxCell>
        <mxCell id="gQ9e6RJ-nowYOAhNkG7h-32" value="保存合约明细&lt;br&gt;生成待支付合约" style="whiteSpace=wrap;html=1;strokeWidth=2;rounded=1;" parent="1" vertex="1">
          <mxGeometry x="-618.75" y="40" width="112.5" height="50" as="geometry" />
        </mxCell>
        <mxCell id="gQ9e6RJ-nowYOAhNkG7h-44" style="edgeStyle=orthogonalEdgeStyle;orthogonalLoop=1;jettySize=auto;html=1;fontSize=14;" parent="1" source="gQ9e6RJ-nowYOAhNkG7h-34" target="gQ9e6RJ-nowYOAhNkG7h-38" edge="1">
          <mxGeometry relative="1" as="geometry" />
        </mxCell>
        <mxCell id="gQ9e6RJ-nowYOAhNkG7h-34" value="保存合约优惠明细" style="whiteSpace=wrap;html=1;strokeWidth=2;rounded=1;" parent="1" vertex="1">
          <mxGeometry x="-618.75" y="130" width="112.5" height="60" as="geometry" />
        </mxCell>
        <mxCell id="gQ9e6RJ-nowYOAhNkG7h-41" value="" style="edgeStyle=orthogonalEdgeStyle;orthogonalLoop=1;jettySize=auto;html=1;fontSize=14;" parent="1" source="gQ9e6RJ-nowYOAhNkG7h-38" target="gQ9e6RJ-nowYOAhNkG7h-40" edge="1">
          <mxGeometry relative="1" as="geometry" />
        </mxCell>
        <mxCell id="gQ9e6RJ-nowYOAhNkG7h-38" value="更新合约第三方支付信息" style="whiteSpace=wrap;html=1;strokeWidth=2;rounded=1;" parent="1" vertex="1">
          <mxGeometry x="-618.75" y="240" width="112.5" height="50" as="geometry" />
        </mxCell>
        <mxCell id="gQ9e6RJ-nowYOAhNkG7h-40" value="结束" style="ellipse;whiteSpace=wrap;html=1;strokeWidth=2;rounded=1;" parent="1" vertex="1">
          <mxGeometry x="-607.19" y="320" width="88.44" height="50" as="geometry" />
        </mxCell>
        <mxCell id="gQ9e6RJ-nowYOAhNkG7h-45" value="&lt;b&gt;&lt;font style=&quot;font-size: 14px&quot;&gt;用户确认支付&lt;/font&gt;&lt;/b&gt;" style="text;html=1;align=center;verticalAlign=middle;resizable=0;points=[];autosize=1;strokeColor=none;fillColor=none;rounded=1;" parent="1" vertex="1">
          <mxGeometry x="-320" y="-460" width="100" height="20" as="geometry" />
        </mxCell>
        <mxCell id="gQ9e6RJ-nowYOAhNkG7h-48" value="卡id,&lt;br&gt;合约号" style="edgeStyle=orthogonalEdgeStyle;orthogonalLoop=1;jettySize=auto;html=1;fontSize=14;" parent="1" source="gQ9e6RJ-nowYOAhNkG7h-46" target="gQ9e6RJ-nowYOAhNkG7h-47" edge="1">
          <mxGeometry relative="1" as="geometry" />
        </mxCell>
        <mxCell id="gQ9e6RJ-nowYOAhNkG7h-46" value="确认支付" style="strokeWidth=2;html=1;shape=mxgraph.flowchart.start_1;whiteSpace=wrap;direction=west;rounded=1;" parent="1" vertex="1">
          <mxGeometry x="-290" y="-410" width="70" height="40" as="geometry" />
        </mxCell>
        <mxCell id="gQ9e6RJ-nowYOAhNkG7h-106" value="" style="edgeStyle=orthogonalEdgeStyle;orthogonalLoop=1;jettySize=auto;html=1;fontSize=14;" parent="1" source="gQ9e6RJ-nowYOAhNkG7h-47" target="gQ9e6RJ-nowYOAhNkG7h-55" edge="1">
          <mxGeometry relative="1" as="geometry" />
        </mxCell>
        <mxCell id="gQ9e6RJ-nowYOAhNkG7h-121" style="edgeStyle=orthogonalEdgeStyle;orthogonalLoop=1;jettySize=auto;html=1;exitX=1;exitY=0.5;exitDx=0;exitDy=0;entryX=1;entryY=0.5;entryDx=0;entryDy=0;fontSize=14;" parent="1" source="gQ9e6RJ-nowYOAhNkG7h-47" target="gQ9e6RJ-nowYOAhNkG7h-116" edge="1">
          <mxGeometry relative="1" as="geometry" />
        </mxCell>
        <mxCell id="gQ9e6RJ-nowYOAhNkG7h-122" value="支付失败" style="edgeLabel;html=1;align=center;verticalAlign=middle;resizable=0;points=[];fontSize=14;rounded=1;" parent="gQ9e6RJ-nowYOAhNkG7h-121" vertex="1" connectable="0">
          <mxGeometry x="-0.5047" y="-2" relative="1" as="geometry">
            <mxPoint as="offset" />
          </mxGeometry>
        </mxCell>
        <mxCell id="gQ9e6RJ-nowYOAhNkG7h-47" value="校验卡&lt;br&gt;校验合约" style="rhombus;whiteSpace=wrap;html=1;strokeWidth=2;rounded=1;" parent="1" vertex="1">
          <mxGeometry x="-125.94" y="-425" width="88.75" height="70" as="geometry" />
        </mxCell>
        <mxCell id="gQ9e6RJ-nowYOAhNkG7h-57" value="" style="edgeStyle=orthogonalEdgeStyle;orthogonalLoop=1;jettySize=auto;html=1;fontSize=14;" parent="1" source="gQ9e6RJ-nowYOAhNkG7h-53" target="gQ9e6RJ-nowYOAhNkG7h-56" edge="1">
          <mxGeometry relative="1" as="geometry" />
        </mxCell>
        <mxCell id="gQ9e6RJ-nowYOAhNkG7h-53" value="更新用户默认支付卡" style="whiteSpace=wrap;html=1;strokeWidth=2;rounded=1;" parent="1" vertex="1">
          <mxGeometry x="-128.13" y="-180" width="94.38" height="50" as="geometry" />
        </mxCell>
        <mxCell id="gQ9e6RJ-nowYOAhNkG7h-107" value="" style="edgeStyle=orthogonalEdgeStyle;orthogonalLoop=1;jettySize=auto;html=1;fontSize=14;" parent="1" source="gQ9e6RJ-nowYOAhNkG7h-55" target="gQ9e6RJ-nowYOAhNkG7h-53" edge="1">
          <mxGeometry relative="1" as="geometry" />
        </mxCell>
        <mxCell id="gQ9e6RJ-nowYOAhNkG7h-123" style="edgeStyle=orthogonalEdgeStyle;orthogonalLoop=1;jettySize=auto;html=1;exitX=1;exitY=0.5;exitDx=0;exitDy=0;entryX=1;entryY=0.5;entryDx=0;entryDy=0;fontSize=14;" parent="1" source="gQ9e6RJ-nowYOAhNkG7h-55" target="gQ9e6RJ-nowYOAhNkG7h-116" edge="1">
          <mxGeometry relative="1" as="geometry" />
        </mxCell>
        <mxCell id="gQ9e6RJ-nowYOAhNkG7h-55" value="校验用户&lt;br&gt;是否购买合约" style="rhombus;whiteSpace=wrap;html=1;strokeWidth=2;rounded=1;" parent="1" vertex="1">
          <mxGeometry x="-124.69000000000005" y="-310" width="87.5" height="80" as="geometry" />
        </mxCell>
        <mxCell id="gQ9e6RJ-nowYOAhNkG7h-63" value="" style="edgeStyle=orthogonalEdgeStyle;orthogonalLoop=1;jettySize=auto;html=1;fontSize=14;entryX=0;entryY=0.5;entryDx=0;entryDy=0;" parent="1" source="gQ9e6RJ-nowYOAhNkG7h-56" target="gQ9e6RJ-nowYOAhNkG7h-58" edge="1">
          <mxGeometry relative="1" as="geometry">
            <mxPoint x="45" y="-45" as="targetPoint" />
          </mxGeometry>
        </mxCell>
        <mxCell id="gQ9e6RJ-nowYOAhNkG7h-56" value="根据支付渠道&lt;br&gt;发起支付" style="whiteSpace=wrap;html=1;strokeWidth=2;rounded=1;" parent="1" vertex="1">
          <mxGeometry x="-127.19000000000005" y="-70" width="94.38" height="50" as="geometry" />
        </mxCell>
        <mxCell id="gQ9e6RJ-nowYOAhNkG7h-109" value="" style="edgeStyle=orthogonalEdgeStyle;orthogonalLoop=1;jettySize=auto;html=1;fontSize=14;" parent="1" source="gQ9e6RJ-nowYOAhNkG7h-58" target="gQ9e6RJ-nowYOAhNkG7h-108" edge="1">
          <mxGeometry relative="1" as="geometry">
            <Array as="points">
              <mxPoint x="112" y="10" />
              <mxPoint x="-84" y="10" />
            </Array>
          </mxGeometry>
        </mxCell>
        <mxCell id="gQ9e6RJ-nowYOAhNkG7h-58" value="第三方支付" style="whiteSpace=wrap;html=1;strokeWidth=2;fillColor=#FFE6CC;rounded=1;" parent="1" vertex="1">
          <mxGeometry x="65" y="-70" width="94.38" height="50" as="geometry" />
        </mxCell>
        <mxCell id="gQ9e6RJ-nowYOAhNkG7h-81" value="是" style="edgeStyle=orthogonalEdgeStyle;orthogonalLoop=1;jettySize=auto;html=1;fontSize=14;entryX=0.5;entryY=0;entryDx=0;entryDy=0;" parent="1" source="gQ9e6RJ-nowYOAhNkG7h-76" target="gQ9e6RJ-nowYOAhNkG7h-82" edge="1">
          <mxGeometry relative="1" as="geometry">
            <mxPoint x="115.52499999999996" y="1845" as="targetPoint" />
          </mxGeometry>
        </mxCell>
        <mxCell id="gQ9e6RJ-nowYOAhNkG7h-101" value="" style="edgeStyle=orthogonalEdgeStyle;orthogonalLoop=1;jettySize=auto;html=1;fontSize=14;" parent="1" source="gQ9e6RJ-nowYOAhNkG7h-76" target="gQ9e6RJ-nowYOAhNkG7h-100" edge="1">
          <mxGeometry relative="1" as="geometry" />
        </mxCell>
        <mxCell id="gQ9e6RJ-nowYOAhNkG7h-76" value="是否已生成&lt;br&gt;stirpe合约" style="rhombus;whiteSpace=wrap;html=1;strokeWidth=2;rounded=1;" parent="1" vertex="1">
          <mxGeometry x="74.11999999999999" y="1700" width="82.81" height="65" as="geometry" />
        </mxCell>
        <mxCell id="gQ9e6RJ-nowYOAhNkG7h-86" value="" style="edgeStyle=orthogonalEdgeStyle;orthogonalLoop=1;jettySize=auto;html=1;fontSize=14;" parent="1" source="gQ9e6RJ-nowYOAhNkG7h-82" target="gQ9e6RJ-nowYOAhNkG7h-85" edge="1">
          <mxGeometry relative="1" as="geometry" />
        </mxCell>
        <mxCell id="gQ9e6RJ-nowYOAhNkG7h-82" value="查询stripe合约" style="whiteSpace=wrap;html=1;strokeWidth=2;rounded=1;" parent="1" vertex="1">
          <mxGeometry x="68.34000000000002" y="1814" width="94.38" height="50" as="geometry" />
        </mxCell>
        <mxCell id="gQ9e6RJ-nowYOAhNkG7h-88" value="否" style="edgeStyle=orthogonalEdgeStyle;orthogonalLoop=1;jettySize=auto;html=1;fontSize=14;" parent="1" source="gQ9e6RJ-nowYOAhNkG7h-85" target="gQ9e6RJ-nowYOAhNkG7h-87" edge="1">
          <mxGeometry relative="1" as="geometry" />
        </mxCell>
        <mxCell id="gQ9e6RJ-nowYOAhNkG7h-104" style="edgeStyle=orthogonalEdgeStyle;orthogonalLoop=1;jettySize=auto;html=1;exitX=1;exitY=0.5;exitDx=0;exitDy=0;entryX=1;entryY=0.5;entryDx=0;entryDy=0;fontSize=14;" parent="1" source="gQ9e6RJ-nowYOAhNkG7h-85" edge="1">
          <mxGeometry relative="1" as="geometry">
            <mxPoint x="175.51999999999987" y="2429" as="targetPoint" />
            <Array as="points">
              <mxPoint x="208.34000000000003" y="1935" />
              <mxPoint x="208.34000000000003" y="2429" />
            </Array>
          </mxGeometry>
        </mxCell>
        <mxCell id="gQ9e6RJ-nowYOAhNkG7h-85" value="是否已支付" style="rhombus;whiteSpace=wrap;html=1;strokeWidth=2;rounded=1;" parent="1" vertex="1">
          <mxGeometry x="68.49999999999999" y="1895" width="94.22" height="80" as="geometry" />
        </mxCell>
        <mxCell id="gQ9e6RJ-nowYOAhNkG7h-90" value="" style="edgeStyle=orthogonalEdgeStyle;orthogonalLoop=1;jettySize=auto;html=1;fontSize=14;" parent="1" source="gQ9e6RJ-nowYOAhNkG7h-87" target="gQ9e6RJ-nowYOAhNkG7h-89" edge="1">
          <mxGeometry relative="1" as="geometry" />
        </mxCell>
        <mxCell id="gQ9e6RJ-nowYOAhNkG7h-87" value="合约最后支付发票" style="whiteSpace=wrap;html=1;strokeWidth=2;rounded=1;" parent="1" vertex="1">
          <mxGeometry x="59.20000000000004" y="2025" width="112.82" height="50" as="geometry" />
        </mxCell>
        <mxCell id="gQ9e6RJ-nowYOAhNkG7h-92" value="" style="edgeStyle=orthogonalEdgeStyle;orthogonalLoop=1;jettySize=auto;html=1;fontSize=14;" parent="1" source="gQ9e6RJ-nowYOAhNkG7h-89" target="gQ9e6RJ-nowYOAhNkG7h-91" edge="1">
          <mxGeometry relative="1" as="geometry" />
        </mxCell>
        <mxCell id="gQ9e6RJ-nowYOAhNkG7h-93" value="否" style="edgeLabel;html=1;align=center;verticalAlign=middle;resizable=0;points=[];fontSize=14;rounded=1;" parent="gQ9e6RJ-nowYOAhNkG7h-92" vertex="1" connectable="0">
          <mxGeometry x="-0.2614" y="1" relative="1" as="geometry">
            <mxPoint as="offset" />
          </mxGeometry>
        </mxCell>
        <mxCell id="gQ9e6RJ-nowYOAhNkG7h-105" style="edgeStyle=orthogonalEdgeStyle;orthogonalLoop=1;jettySize=auto;html=1;fontSize=14;entryX=1;entryY=0.5;entryDx=0;entryDy=0;" parent="1" source="gQ9e6RJ-nowYOAhNkG7h-89" edge="1">
          <mxGeometry relative="1" as="geometry">
            <mxPoint x="175.51999999999987" y="2429" as="targetPoint" />
            <Array as="points">
              <mxPoint x="208.34000000000003" y="2180" />
              <mxPoint x="208.34000000000003" y="2429" />
            </Array>
          </mxGeometry>
        </mxCell>
        <mxCell id="gQ9e6RJ-nowYOAhNkG7h-89" value="发票是否已支付" style="rhombus;whiteSpace=wrap;html=1;strokeWidth=2;rounded=1;" parent="1" vertex="1">
          <mxGeometry x="75.61" y="2140" width="80" height="80" as="geometry" />
        </mxCell>
        <mxCell id="gQ9e6RJ-nowYOAhNkG7h-111" value="" style="edgeStyle=orthogonalEdgeStyle;orthogonalLoop=1;jettySize=auto;html=1;fontSize=14;" parent="1" source="gQ9e6RJ-nowYOAhNkG7h-91" target="gQ9e6RJ-nowYOAhNkG7h-110" edge="1">
          <mxGeometry relative="1" as="geometry" />
        </mxCell>
        <mxCell id="gQ9e6RJ-nowYOAhNkG7h-91" value="发起支付" style="whiteSpace=wrap;html=1;strokeWidth=2;rounded=1;" parent="1" vertex="1">
          <mxGeometry x="55.61000000000001" y="2275" width="120" height="60" as="geometry" />
        </mxCell>
        <mxCell id="gQ9e6RJ-nowYOAhNkG7h-103" style="edgeStyle=orthogonalEdgeStyle;orthogonalLoop=1;jettySize=auto;html=1;entryX=1;entryY=0.5;entryDx=0;entryDy=0;fontSize=14;exitX=0.5;exitY=1;exitDx=0;exitDy=0;" parent="1" source="gQ9e6RJ-nowYOAhNkG7h-96" target="gQ9e6RJ-nowYOAhNkG7h-87" edge="1">
          <mxGeometry relative="1" as="geometry" />
        </mxCell>
        <mxCell id="gQ9e6RJ-nowYOAhNkG7h-96" value="创建stripe租金和佣金合约" style="whiteSpace=wrap;html=1;strokeWidth=2;rounded=1;" parent="1" vertex="1">
          <mxGeometry x="223.33000000000004" y="1814" width="110.01" height="47.25" as="geometry" />
        </mxCell>
        <mxCell id="gQ9e6RJ-nowYOAhNkG7h-102" value="" style="edgeStyle=orthogonalEdgeStyle;orthogonalLoop=1;jettySize=auto;html=1;fontSize=14;" parent="1" source="gQ9e6RJ-nowYOAhNkG7h-100" target="gQ9e6RJ-nowYOAhNkG7h-96" edge="1">
          <mxGeometry relative="1" as="geometry" />
        </mxCell>
        <mxCell id="gQ9e6RJ-nowYOAhNkG7h-100" value="计算&lt;br&gt;stripe合约价格" style="whiteSpace=wrap;html=1;strokeWidth=2;rounded=1;" parent="1" vertex="1">
          <mxGeometry x="228.33000000000004" y="1711.25" width="100.01" height="42.5" as="geometry" />
        </mxCell>
        <mxCell id="gQ9e6RJ-nowYOAhNkG7h-113" value="" style="edgeStyle=orthogonalEdgeStyle;orthogonalLoop=1;jettySize=auto;html=1;fontSize=14;" parent="1" source="gQ9e6RJ-nowYOAhNkG7h-108" target="gQ9e6RJ-nowYOAhNkG7h-112" edge="1">
          <mxGeometry relative="1" as="geometry" />
        </mxCell>
        <mxCell id="gQ9e6RJ-nowYOAhNkG7h-108" value="返回支付结果" style="whiteSpace=wrap;html=1;strokeWidth=2;rounded=1;" parent="1" vertex="1">
          <mxGeometry x="-131.56999999999994" y="45" width="94.38" height="50" as="geometry" />
        </mxCell>
        <mxCell id="gQ9e6RJ-nowYOAhNkG7h-110" value="支付成功" style="ellipse;whiteSpace=wrap;html=1;strokeWidth=2;rounded=1;" parent="1" vertex="1">
          <mxGeometry x="55.61000000000001" y="2399" width="120" height="60" as="geometry" />
        </mxCell>
        <mxCell id="gQ9e6RJ-nowYOAhNkG7h-115" value="是" style="edgeStyle=orthogonalEdgeStyle;orthogonalLoop=1;jettySize=auto;html=1;fontSize=14;" parent="1" source="gQ9e6RJ-nowYOAhNkG7h-112" target="gQ9e6RJ-nowYOAhNkG7h-114" edge="1">
          <mxGeometry relative="1" as="geometry" />
        </mxCell>
        <mxCell id="gQ9e6RJ-nowYOAhNkG7h-118" style="edgeStyle=orthogonalEdgeStyle;orthogonalLoop=1;jettySize=auto;html=1;exitX=1;exitY=0.5;exitDx=0;exitDy=0;entryX=1;entryY=0.5;entryDx=0;entryDy=0;fontSize=14;" parent="1" source="gQ9e6RJ-nowYOAhNkG7h-112" target="gQ9e6RJ-nowYOAhNkG7h-116" edge="1">
          <mxGeometry relative="1" as="geometry" />
        </mxCell>
        <mxCell id="gQ9e6RJ-nowYOAhNkG7h-112" value="支付成功" style="rhombus;whiteSpace=wrap;html=1;strokeWidth=2;rounded=1;" parent="1" vertex="1">
          <mxGeometry x="-124.37999999999988" y="144" width="80" height="80" as="geometry" />
        </mxCell>
        <mxCell id="gQ9e6RJ-nowYOAhNkG7h-117" value="" style="edgeStyle=orthogonalEdgeStyle;orthogonalLoop=1;jettySize=auto;html=1;fontSize=14;" parent="1" source="gQ9e6RJ-nowYOAhNkG7h-114" target="gQ9e6RJ-nowYOAhNkG7h-116" edge="1">
          <mxGeometry relative="1" as="geometry" />
        </mxCell>
        <mxCell id="gQ9e6RJ-nowYOAhNkG7h-114" value="active合约" style="whiteSpace=wrap;html=1;strokeWidth=2;fillColor=#FFCCCC;rounded=1;" parent="1" vertex="1">
          <mxGeometry x="-134.38" y="260" width="99.38" height="50" as="geometry" />
        </mxCell>
        <mxCell id="gQ9e6RJ-nowYOAhNkG7h-116" value="返回结果" style="ellipse;whiteSpace=wrap;html=1;strokeWidth=2;rounded=1;" parent="1" vertex="1">
          <mxGeometry x="-139.38" y="360" width="109.38" height="50" as="geometry" />
        </mxCell>
        <mxCell id="gQ9e6RJ-nowYOAhNkG7h-126" value="" style="edgeStyle=orthogonalEdgeStyle;orthogonalLoop=1;jettySize=auto;html=1;fontSize=14;" parent="1" source="gQ9e6RJ-nowYOAhNkG7h-125" target="gQ9e6RJ-nowYOAhNkG7h-76" edge="1">
          <mxGeometry relative="1" as="geometry" />
        </mxCell>
        <mxCell id="gQ9e6RJ-nowYOAhNkG7h-125" value="stripe支付" style="strokeWidth=2;html=1;shape=mxgraph.flowchart.start_1;whiteSpace=wrap;direction=west;fillColor=#FFE6CC;rounded=1;" parent="1" vertex="1">
          <mxGeometry x="-88.89" y="1712.5" width="70" height="40" as="geometry" />
        </mxCell>
        <mxCell id="gQ9e6RJ-nowYOAhNkG7h-127" value="&lt;b&gt;&lt;font style=&quot;font-size: 14px&quot;&gt;stripe支付&lt;/font&gt;&lt;/b&gt;" style="text;html=1;align=center;verticalAlign=middle;resizable=0;points=[];autosize=1;strokeColor=none;fillColor=none;rounded=1;" parent="1" vertex="1">
          <mxGeometry x="-124.39" y="1630" width="80" height="20" as="geometry" />
        </mxCell>
        <mxCell id="gQ9e6RJ-nowYOAhNkG7h-128" value="&lt;span style=&quot;background-color: rgb(249 , 255 , 69)&quot;&gt;&lt;br&gt;异常情况：webhook&lt;/span&gt;" style="text;html=1;strokeColor=#F9FF45;fillColor=none;spacing=5;spacingTop=-20;whiteSpace=wrap;overflow=hidden;fontSize=14;rounded=1;" parent="1" vertex="1">
          <mxGeometry x="55" y="40" width="140" height="40" as="geometry" />
        </mxCell>
        <mxCell id="teWDPq3EOm9InXgKCln7-5" value="subscriptionNo" style="edgeStyle=orthogonalEdgeStyle;orthogonalLoop=1;jettySize=auto;html=1;exitX=0;exitY=0.5;exitDx=0;exitDy=0;exitPerimeter=0;entryX=0;entryY=0.5;entryDx=0;entryDy=0;" parent="1" source="teWDPq3EOm9InXgKCln7-3" target="teWDPq3EOm9InXgKCln7-4" edge="1">
          <mxGeometry relative="1" as="geometry" />
        </mxCell>
        <mxCell id="teWDPq3EOm9InXgKCln7-3" value="激活事件" style="strokeWidth=2;html=1;shape=mxgraph.flowchart.start_1;whiteSpace=wrap;direction=west;fillColor=#FFCCCC;rounded=1;" parent="1" vertex="1">
          <mxGeometry x="-827" y="571.25" width="75" height="47.5" as="geometry" />
        </mxCell>
        <mxCell id="teWDPq3EOm9InXgKCln7-9" value="" style="edgeStyle=orthogonalEdgeStyle;orthogonalLoop=1;jettySize=auto;html=1;" parent="1" source="teWDPq3EOm9InXgKCln7-4" target="teWDPq3EOm9InXgKCln7-8" edge="1">
          <mxGeometry relative="1" as="geometry" />
        </mxCell>
        <mxCell id="teWDPq3EOm9InXgKCln7-4" value="查询本地合约" style="whiteSpace=wrap;html=1;strokeWidth=2;rounded=1;" parent="1" vertex="1">
          <mxGeometry x="-637.6999999999999" y="567.5" width="102.81" height="55" as="geometry" />
        </mxCell>
        <mxCell id="wxt9IOkUhSoqVQ1btQjg-53" style="edgeStyle=orthogonalEdgeStyle;rounded=1;orthogonalLoop=1;jettySize=auto;html=1;exitX=0.5;exitY=1;exitDx=0;exitDy=0;" edge="1" parent="1" source="teWDPq3EOm9InXgKCln7-8" target="wxt9IOkUhSoqVQ1btQjg-51">
          <mxGeometry relative="1" as="geometry" />
        </mxCell>
        <mxCell id="teWDPq3EOm9InXgKCln7-8" value="第三方平台id是否存在&lt;br&gt;并且&lt;br&gt;是否待激活" style="rhombus;whiteSpace=wrap;html=1;strokeWidth=2;rounded=1;" parent="1" vertex="1">
          <mxGeometry x="-401.25" y="555" width="111.25" height="80" as="geometry" />
        </mxCell>
        <mxCell id="teWDPq3EOm9InXgKCln7-52" value="&#xa;&#xa;&lt;span style=&quot;color: rgb(0, 0, 0); font-family: helvetica; font-size: 12px; font-style: normal; font-weight: 400; letter-spacing: normal; text-align: center; text-indent: 0px; text-transform: none; word-spacing: 0px; background-color: rgb(248, 249, 250); display: inline; float: none;&quot;&gt;subscriptionNo&lt;/span&gt;&#xa;&#xa;" style="edgeStyle=orthogonalEdgeStyle;orthogonalLoop=1;jettySize=auto;html=1;" parent="1" source="teWDPq3EOm9InXgKCln7-50" target="teWDPq3EOm9InXgKCln7-51" edge="1">
          <mxGeometry x="0.0005" relative="1" as="geometry">
            <mxPoint as="offset" />
          </mxGeometry>
        </mxCell>
        <mxCell id="teWDPq3EOm9InXgKCln7-50" value="合约取消事件" style="strokeWidth=2;html=1;shape=mxgraph.flowchart.start_1;whiteSpace=wrap;direction=west;rounded=1;fillColor=#999999;" parent="1" vertex="1">
          <mxGeometry x="-52.379999999999995" y="565" width="75" height="45" as="geometry" />
        </mxCell>
        <mxCell id="teWDPq3EOm9InXgKCln7-55" value="" style="edgeStyle=orthogonalEdgeStyle;orthogonalLoop=1;jettySize=auto;html=1;" parent="1" source="teWDPq3EOm9InXgKCln7-51" target="teWDPq3EOm9InXgKCln7-54" edge="1">
          <mxGeometry relative="1" as="geometry" />
        </mxCell>
        <mxCell id="teWDPq3EOm9InXgKCln7-51" value="&#xa;&#xa;&lt;span style=&quot;color: rgb(0, 0, 0); font-family: helvetica; font-size: 12px; font-style: normal; font-weight: 400; letter-spacing: normal; text-align: center; text-indent: 0px; text-transform: none; word-spacing: 0px; background-color: rgb(248, 249, 250); display: inline; float: none;&quot;&gt;查询本地合约&lt;/span&gt;&#xa;&#xa;" style="whiteSpace=wrap;html=1;strokeWidth=2;rounded=1;" parent="1" vertex="1">
          <mxGeometry x="132.62" y="561.25" width="110" height="52.5" as="geometry" />
        </mxCell>
        <mxCell id="jfZgl9VQ7ug2rSFrn5c--4" value="是" style="edgeStyle=orthogonalEdgeStyle;orthogonalLoop=1;jettySize=auto;html=1;exitX=0.5;exitY=1;exitDx=0;exitDy=0;" parent="1" source="teWDPq3EOm9InXgKCln7-54" target="jfZgl9VQ7ug2rSFrn5c--1" edge="1">
          <mxGeometry relative="1" as="geometry" />
        </mxCell>
        <mxCell id="jfZgl9VQ7ug2rSFrn5c--64" style="edgeStyle=orthogonalEdgeStyle;orthogonalLoop=1;jettySize=auto;html=1;exitX=1;exitY=0.5;exitDx=0;exitDy=0;entryX=0.5;entryY=0;entryDx=0;entryDy=0;" parent="1" source="teWDPq3EOm9InXgKCln7-54" target="teWDPq3EOm9InXgKCln7-92" edge="1">
          <mxGeometry relative="1" as="geometry">
            <mxPoint x="822.62" y="1320" as="targetPoint" />
          </mxGeometry>
        </mxCell>
        <mxCell id="teWDPq3EOm9InXgKCln7-54" value="第三方合约id存在" style="rhombus;whiteSpace=wrap;html=1;strokeWidth=2;rounded=1;" parent="1" vertex="1">
          <mxGeometry x="342.62" y="547.5" width="127.5" height="80" as="geometry" />
        </mxCell>
        <mxCell id="teWDPq3EOm9InXgKCln7-75" value="是" style="edgeStyle=orthogonalEdgeStyle;orthogonalLoop=1;jettySize=auto;html=1;exitX=0.5;exitY=1;exitDx=0;exitDy=0;entryX=0.5;entryY=0;entryDx=0;entryDy=0;" parent="1" source="teWDPq3EOm9InXgKCln7-72" target="teWDPq3EOm9InXgKCln7-81" edge="1">
          <mxGeometry relative="1" as="geometry">
            <mxPoint x="-27.479999999999905" y="1315" as="targetPoint" />
          </mxGeometry>
        </mxCell>
        <mxCell id="jfZgl9VQ7ug2rSFrn5c--52" style="edgeStyle=orthogonalEdgeStyle;orthogonalLoop=1;jettySize=auto;html=1;exitX=1;exitY=0.5;exitDx=0;exitDy=0;" parent="1" source="teWDPq3EOm9InXgKCln7-72" target="teWDPq3EOm9InXgKCln7-79" edge="1">
          <mxGeometry relative="1" as="geometry" />
        </mxCell>
        <mxCell id="teWDPq3EOm9InXgKCln7-72" value="下一个配发套餐" style="rhombus;whiteSpace=wrap;html=1;strokeWidth=2;rounded=1;" parent="1" vertex="1">
          <mxGeometry x="218.34" y="1097.5" width="115" height="70" as="geometry" />
        </mxCell>
        <mxCell id="jfZgl9VQ7ug2rSFrn5c--59" style="edgeStyle=orthogonalEdgeStyle;orthogonalLoop=1;jettySize=auto;html=1;exitX=1;exitY=0.5;exitDx=0;exitDy=0;entryX=0.5;entryY=0;entryDx=0;entryDy=0;" parent="1" source="teWDPq3EOm9InXgKCln7-79" target="teWDPq3EOm9InXgKCln7-98" edge="1">
          <mxGeometry relative="1" as="geometry" />
        </mxCell>
        <mxCell id="jfZgl9VQ7ug2rSFrn5c--60" value="否" style="edgeLabel;html=1;align=center;verticalAlign=middle;resizable=0;points=[];rounded=1;" parent="jfZgl9VQ7ug2rSFrn5c--59" vertex="1" connectable="0">
          <mxGeometry x="-0.0423" y="3" relative="1" as="geometry">
            <mxPoint as="offset" />
          </mxGeometry>
        </mxCell>
        <mxCell id="jfZgl9VQ7ug2rSFrn5c--61" style="edgeStyle=orthogonalEdgeStyle;orthogonalLoop=1;jettySize=auto;html=1;exitX=0.5;exitY=1;exitDx=0;exitDy=0;entryX=0.5;entryY=0;entryDx=0;entryDy=0;" parent="1" source="teWDPq3EOm9InXgKCln7-79" target="teWDPq3EOm9InXgKCln7-81" edge="1">
          <mxGeometry relative="1" as="geometry" />
        </mxCell>
        <mxCell id="teWDPq3EOm9InXgKCln7-79" value="下一个订阅计划" style="rhombus;whiteSpace=wrap;html=1;strokeWidth=2;rounded=1;" parent="1" vertex="1">
          <mxGeometry x="460" y="1097.5" width="119.5" height="70" as="geometry" />
        </mxCell>
        <mxCell id="jfZgl9VQ7ug2rSFrn5c--54" style="edgeStyle=orthogonalEdgeStyle;orthogonalLoop=1;jettySize=auto;html=1;exitX=0.5;exitY=1;exitDx=0;exitDy=0;" parent="1" source="teWDPq3EOm9InXgKCln7-81" target="teWDPq3EOm9InXgKCln7-88" edge="1">
          <mxGeometry relative="1" as="geometry" />
        </mxCell>
        <mxCell id="teWDPq3EOm9InXgKCln7-81" value="第三方支付" style="whiteSpace=wrap;html=1;strokeWidth=2;fillColor=#FFE6CC;rounded=1;" parent="1" vertex="1">
          <mxGeometry x="-68.85" y="1210" width="108.75" height="50" as="geometry" />
        </mxCell>
        <mxCell id="jfZgl9VQ7ug2rSFrn5c--55" style="edgeStyle=orthogonalEdgeStyle;orthogonalLoop=1;jettySize=auto;html=1;" parent="1" source="teWDPq3EOm9InXgKCln7-88" target="teWDPq3EOm9InXgKCln7-90" edge="1">
          <mxGeometry relative="1" as="geometry" />
        </mxCell>
        <mxCell id="jfZgl9VQ7ug2rSFrn5c--56" value="是" style="edgeLabel;html=1;align=center;verticalAlign=middle;resizable=0;points=[];rounded=1;" parent="jfZgl9VQ7ug2rSFrn5c--55" vertex="1" connectable="0">
          <mxGeometry x="-0.2261" y="-2" relative="1" as="geometry">
            <mxPoint as="offset" />
          </mxGeometry>
        </mxCell>
        <mxCell id="jfZgl9VQ7ug2rSFrn5c--57" value="否" style="edgeStyle=orthogonalEdgeStyle;orthogonalLoop=1;jettySize=auto;html=1;exitX=1;exitY=0.5;exitDx=0;exitDy=0;entryX=0;entryY=0.5;entryDx=0;entryDy=0;" parent="1" source="teWDPq3EOm9InXgKCln7-88" target="teWDPq3EOm9InXgKCln7-105" edge="1">
          <mxGeometry relative="1" as="geometry" />
        </mxCell>
        <mxCell id="teWDPq3EOm9InXgKCln7-88" value="支付成功" style="rhombus;whiteSpace=wrap;html=1;strokeWidth=2;rounded=1;" parent="1" vertex="1">
          <mxGeometry x="-68.84999999999998" y="1300" width="110" height="80" as="geometry" />
        </mxCell>
        <mxCell id="jfZgl9VQ7ug2rSFrn5c--38" style="edgeStyle=orthogonalEdgeStyle;orthogonalLoop=1;jettySize=auto;html=1;exitX=1;exitY=0.5;exitDx=0;exitDy=0;" parent="1" source="teWDPq3EOm9InXgKCln7-90" target="teWDPq3EOm9InXgKCln7-92" edge="1">
          <mxGeometry relative="1" as="geometry" />
        </mxCell>
        <mxCell id="teWDPq3EOm9InXgKCln7-90" value="激活合约" style="whiteSpace=wrap;html=1;strokeWidth=2;fillColor=#FFCCCC;rounded=1;" parent="1" vertex="1">
          <mxGeometry x="-61.88" y="1455" width="94.81" height="59" as="geometry" />
        </mxCell>
        <mxCell id="teWDPq3EOm9InXgKCln7-92" value="结束" style="ellipse;whiteSpace=wrap;html=1;strokeWidth=2;rounded=1;" parent="1" vertex="1">
          <mxGeometry x="680.0000000000001" y="1401.5" width="84.15" height="52" as="geometry" />
        </mxCell>
        <mxCell id="jfZgl9VQ7ug2rSFrn5c--41" style="edgeStyle=orthogonalEdgeStyle;orthogonalLoop=1;jettySize=auto;html=1;exitX=0.5;exitY=1;exitDx=0;exitDy=0;" parent="1" source="teWDPq3EOm9InXgKCln7-98" target="teWDPq3EOm9InXgKCln7-108" edge="1">
          <mxGeometry relative="1" as="geometry" />
        </mxCell>
        <mxCell id="teWDPq3EOm9InXgKCln7-98" value="修改合约状态完成" style="whiteSpace=wrap;html=1;strokeWidth=2;rounded=1;" parent="1" vertex="1">
          <mxGeometry x="456.29" y="1310" width="90" height="60" as="geometry" />
        </mxCell>
        <mxCell id="jfZgl9VQ7ug2rSFrn5c--58" style="edgeStyle=orthogonalEdgeStyle;orthogonalLoop=1;jettySize=auto;html=1;exitX=1;exitY=0.5;exitDx=0;exitDy=0;entryX=0;entryY=0.5;entryDx=0;entryDy=0;" parent="1" source="teWDPq3EOm9InXgKCln7-105" target="teWDPq3EOm9InXgKCln7-98" edge="1">
          <mxGeometry relative="1" as="geometry" />
        </mxCell>
        <mxCell id="teWDPq3EOm9InXgKCln7-105" value="修改订阅计划失败&lt;br&gt;和失败次数" style="whiteSpace=wrap;html=1;strokeWidth=2;rounded=1;" parent="1" vertex="1">
          <mxGeometry x="275.50000000000006" y="1315" width="99.5" height="50" as="geometry" />
        </mxCell>
        <mxCell id="jfZgl9VQ7ug2rSFrn5c--42" style="edgeStyle=orthogonalEdgeStyle;orthogonalLoop=1;jettySize=auto;html=1;exitX=1;exitY=0.5;exitDx=0;exitDy=0;entryX=0;entryY=0.5;entryDx=0;entryDy=0;" parent="1" source="teWDPq3EOm9InXgKCln7-108" target="teWDPq3EOm9InXgKCln7-92" edge="1">
          <mxGeometry relative="1" as="geometry" />
        </mxCell>
        <mxCell id="teWDPq3EOm9InXgKCln7-108" value="取消第三方合约" style="whiteSpace=wrap;html=1;strokeWidth=2;fillColor=#FFFFFF;rounded=1;" parent="1" vertex="1">
          <mxGeometry x="454.29" y="1400" width="92" height="55" as="geometry" />
        </mxCell>
        <mxCell id="XoUzy-fujzcniTH-fsxB-27" value="是否已支付" style="rhombus;whiteSpace=wrap;html=1;strokeWidth=2;rounded=1;" parent="1" vertex="1">
          <mxGeometry x="-569.23" y="1690" width="82.81" height="65" as="geometry" />
        </mxCell>
        <mxCell id="XoUzy-fujzcniTH-fsxB-28" value="否" style="edgeStyle=orthogonalEdgeStyle;orthogonalLoop=1;jettySize=auto;html=1;fontSize=14;exitX=0.5;exitY=1;exitDx=0;exitDy=0;" parent="1" source="XoUzy-fujzcniTH-fsxB-27" target="XoUzy-fujzcniTH-fsxB-32" edge="1">
          <mxGeometry relative="1" as="geometry">
            <mxPoint x="-527.8100000000002" y="1854" as="sourcePoint" />
          </mxGeometry>
        </mxCell>
        <mxCell id="XoUzy-fujzcniTH-fsxB-30" value="否" style="edgeStyle=orthogonalEdgeStyle;orthogonalLoop=1;jettySize=auto;html=1;fontSize=14;" parent="1" source="XoUzy-fujzcniTH-fsxB-32" target="XoUzy-fujzcniTH-fsxB-38" edge="1">
          <mxGeometry relative="1" as="geometry">
            <mxPoint x="-527.7099999999998" y="1950" as="targetPoint" />
          </mxGeometry>
        </mxCell>
        <mxCell id="XoUzy-fujzcniTH-fsxB-51" value="是" style="edgeStyle=orthogonalEdgeStyle;orthogonalLoop=1;jettySize=auto;html=1;" parent="1" source="XoUzy-fujzcniTH-fsxB-32" target="XoUzy-fujzcniTH-fsxB-50" edge="1">
          <mxGeometry relative="1" as="geometry" />
        </mxCell>
        <mxCell id="XoUzy-fujzcniTH-fsxB-32" value="0元单" style="rhombus;whiteSpace=wrap;html=1;strokeWidth=2;rounded=1;" parent="1" vertex="1">
          <mxGeometry x="-575.36" y="1797.63" width="94.22" height="80" as="geometry" />
        </mxCell>
        <mxCell id="XoUzy-fujzcniTH-fsxB-35" value="" style="edgeStyle=orthogonalEdgeStyle;orthogonalLoop=1;jettySize=auto;html=1;fontSize=14;" parent="1" source="XoUzy-fujzcniTH-fsxB-38" target="XoUzy-fujzcniTH-fsxB-40" edge="1">
          <mxGeometry relative="1" as="geometry" />
        </mxCell>
        <mxCell id="XoUzy-fujzcniTH-fsxB-36" value="否" style="edgeLabel;html=1;align=center;verticalAlign=middle;resizable=0;points=[];fontSize=14;rounded=1;" parent="XoUzy-fujzcniTH-fsxB-35" vertex="1" connectable="0">
          <mxGeometry x="-0.2614" y="1" relative="1" as="geometry">
            <mxPoint as="offset" />
          </mxGeometry>
        </mxCell>
        <mxCell id="XoUzy-fujzcniTH-fsxB-61" style="edgeStyle=orthogonalEdgeStyle;orthogonalLoop=1;jettySize=auto;html=1;exitX=0;exitY=0.5;exitDx=0;exitDy=0;entryX=0;entryY=0.5;entryDx=0;entryDy=0;" parent="1" source="XoUzy-fujzcniTH-fsxB-38" target="XoUzy-fujzcniTH-fsxB-56" edge="1">
          <mxGeometry relative="1" as="geometry">
            <Array as="points">
              <mxPoint x="-620" y="1980" />
              <mxPoint x="-620" y="2230" />
            </Array>
          </mxGeometry>
        </mxCell>
        <mxCell id="XoUzy-fujzcniTH-fsxB-62" value="是" style="edgeLabel;html=1;align=center;verticalAlign=middle;resizable=0;points=[];rounded=1;" parent="XoUzy-fujzcniTH-fsxB-61" vertex="1" connectable="0">
          <mxGeometry x="-0.1276" relative="1" as="geometry">
            <mxPoint as="offset" />
          </mxGeometry>
        </mxCell>
        <mxCell id="XoUzy-fujzcniTH-fsxB-38" value="是否已生成支付意图" style="rhombus;whiteSpace=wrap;html=1;strokeWidth=2;rounded=1;" parent="1" vertex="1">
          <mxGeometry x="-571.37" y="1940" width="87.73" height="80" as="geometry" />
        </mxCell>
        <mxCell id="XoUzy-fujzcniTH-fsxB-57" value="" style="edgeStyle=orthogonalEdgeStyle;orthogonalLoop=1;jettySize=auto;html=1;" parent="1" source="XoUzy-fujzcniTH-fsxB-40" target="XoUzy-fujzcniTH-fsxB-56" edge="1">
          <mxGeometry relative="1" as="geometry" />
        </mxCell>
        <mxCell id="XoUzy-fujzcniTH-fsxB-40" value="创建支付意图" style="whiteSpace=wrap;html=1;strokeWidth=2;rounded=1;" parent="1" vertex="1">
          <mxGeometry x="-581.27" y="2080" width="106.89" height="60" as="geometry" />
        </mxCell>
        <mxCell id="XoUzy-fujzcniTH-fsxB-45" value="完成" style="ellipse;whiteSpace=wrap;html=1;strokeWidth=2;rounded=1;" parent="1" vertex="1">
          <mxGeometry x="-583.97" y="2750" width="107.73" height="51" as="geometry" />
        </mxCell>
        <mxCell id="XoUzy-fujzcniTH-fsxB-46" value="" style="edgeStyle=orthogonalEdgeStyle;orthogonalLoop=1;jettySize=auto;html=1;fontSize=14;" parent="1" source="XoUzy-fujzcniTH-fsxB-47" target="XoUzy-fujzcniTH-fsxB-27" edge="1">
          <mxGeometry relative="1" as="geometry" />
        </mxCell>
        <mxCell id="XoUzy-fujzcniTH-fsxB-47" value="空中云汇发起订单支付" style="strokeWidth=2;html=1;shape=mxgraph.flowchart.start_1;whiteSpace=wrap;direction=west;fillColor=#FFE6CC;rounded=1;" parent="1" vertex="1">
          <mxGeometry x="-735.01" y="1696.25" width="70" height="52.5" as="geometry" />
        </mxCell>
        <mxCell id="XoUzy-fujzcniTH-fsxB-48" value="&lt;b&gt;&lt;font style=&quot;font-size: 14px&quot;&gt;空中云汇支付&lt;/font&gt;&lt;/b&gt;" style="text;html=1;align=center;verticalAlign=middle;resizable=0;points=[];autosize=1;strokeColor=none;fillColor=none;rounded=1;" parent="1" vertex="1">
          <mxGeometry x="-772.24" y="1640" width="100" height="20" as="geometry" />
        </mxCell>
        <mxCell id="XoUzy-fujzcniTH-fsxB-50" value="插入支付成功待推送订单记录" style="whiteSpace=wrap;html=1;strokeWidth=2;rounded=1;" parent="1" vertex="1">
          <mxGeometry x="-412.68" y="1814" width="102.67" height="50" as="geometry" />
        </mxCell>
        <mxCell id="XoUzy-fujzcniTH-fsxB-72" style="edgeStyle=orthogonalEdgeStyle;orthogonalLoop=1;jettySize=auto;html=1;exitX=0.5;exitY=1;exitDx=0;exitDy=0;" parent="1" source="XoUzy-fujzcniTH-fsxB-50" target="XoUzy-fujzcniTH-fsxB-70" edge="1">
          <mxGeometry relative="1" as="geometry">
            <mxPoint x="-361.345" y="1960" as="sourcePoint" />
          </mxGeometry>
        </mxCell>
        <mxCell id="XoUzy-fujzcniTH-fsxB-59" value="" style="edgeStyle=orthogonalEdgeStyle;orthogonalLoop=1;jettySize=auto;html=1;" parent="1" source="XoUzy-fujzcniTH-fsxB-56" target="XoUzy-fujzcniTH-fsxB-58" edge="1">
          <mxGeometry relative="1" as="geometry" />
        </mxCell>
        <mxCell id="XoUzy-fujzcniTH-fsxB-56" value="插入待确认待推送订单记录" style="whiteSpace=wrap;html=1;strokeWidth=2;rounded=1;" parent="1" vertex="1">
          <mxGeometry x="-581.6899999999999" y="2200" width="106.89" height="60" as="geometry" />
        </mxCell>
        <mxCell id="XoUzy-fujzcniTH-fsxB-64" value="" style="edgeStyle=orthogonalEdgeStyle;orthogonalLoop=1;jettySize=auto;html=1;" parent="1" source="XoUzy-fujzcniTH-fsxB-58" target="XoUzy-fujzcniTH-fsxB-63" edge="1">
          <mxGeometry relative="1" as="geometry" />
        </mxCell>
        <mxCell id="XoUzy-fujzcniTH-fsxB-58" value="插入待确认待推送订单记录" style="whiteSpace=wrap;html=1;strokeWidth=2;rounded=1;" parent="1" vertex="1">
          <mxGeometry x="-581.6899999999999" y="2320" width="106.89" height="60" as="geometry" />
        </mxCell>
        <mxCell id="XoUzy-fujzcniTH-fsxB-66" style="edgeStyle=orthogonalEdgeStyle;orthogonalLoop=1;jettySize=auto;html=1;exitX=0.5;exitY=1;exitDx=0;exitDy=0;entryX=0.5;entryY=0;entryDx=0;entryDy=0;" parent="1" source="XoUzy-fujzcniTH-fsxB-63" target="XoUzy-fujzcniTH-fsxB-65" edge="1">
          <mxGeometry relative="1" as="geometry" />
        </mxCell>
        <mxCell id="XoUzy-fujzcniTH-fsxB-63" value="提交支付" style="whiteSpace=wrap;html=1;strokeWidth=2;rounded=1;" parent="1" vertex="1">
          <mxGeometry x="-581.6899999999999" y="2420" width="106.89" height="60" as="geometry" />
        </mxCell>
        <mxCell id="XoUzy-fujzcniTH-fsxB-68" value="失败" style="edgeStyle=orthogonalEdgeStyle;orthogonalLoop=1;jettySize=auto;html=1;" parent="1" source="XoUzy-fujzcniTH-fsxB-65" target="XoUzy-fujzcniTH-fsxB-67" edge="1">
          <mxGeometry relative="1" as="geometry" />
        </mxCell>
        <mxCell id="XoUzy-fujzcniTH-fsxB-71" value="成功" style="edgeStyle=orthogonalEdgeStyle;orthogonalLoop=1;jettySize=auto;html=1;exitX=1;exitY=0.5;exitDx=0;exitDy=0;entryX=0;entryY=0.5;entryDx=0;entryDy=0;" parent="1" source="XoUzy-fujzcniTH-fsxB-65" target="XoUzy-fujzcniTH-fsxB-70" edge="1">
          <mxGeometry relative="1" as="geometry" />
        </mxCell>
        <mxCell id="XoUzy-fujzcniTH-fsxB-65" value="是否支付成功" style="rhombus;whiteSpace=wrap;html=1;strokeWidth=2;rounded=1;" parent="1" vertex="1">
          <mxGeometry x="-572.11" y="2513" width="87.73" height="80" as="geometry" />
        </mxCell>
        <mxCell id="XoUzy-fujzcniTH-fsxB-73" style="edgeStyle=orthogonalEdgeStyle;orthogonalLoop=1;jettySize=auto;html=1;exitX=0.5;exitY=1;exitDx=0;exitDy=0;" parent="1" source="XoUzy-fujzcniTH-fsxB-67" target="XoUzy-fujzcniTH-fsxB-45" edge="1">
          <mxGeometry relative="1" as="geometry" />
        </mxCell>
        <mxCell id="XoUzy-fujzcniTH-fsxB-67" value="修改记录为失败&lt;br&gt;推送失败事件" style="whiteSpace=wrap;html=1;strokeWidth=2;rounded=1;" parent="1" vertex="1">
          <mxGeometry x="-583.13" y="2650" width="106.89" height="50" as="geometry" />
        </mxCell>
        <mxCell id="XoUzy-fujzcniTH-fsxB-75" style="edgeStyle=orthogonalEdgeStyle;orthogonalLoop=1;jettySize=auto;html=1;entryX=1;entryY=0.5;entryDx=0;entryDy=0;exitX=0.5;exitY=1;exitDx=0;exitDy=0;" parent="1" source="XoUzy-fujzcniTH-fsxB-70" target="XoUzy-fujzcniTH-fsxB-45" edge="1">
          <mxGeometry relative="1" as="geometry" />
        </mxCell>
        <mxCell id="XoUzy-fujzcniTH-fsxB-70" value="修改记录为成功&lt;br&gt;推送成功事件" style="whiteSpace=wrap;html=1;strokeWidth=2;rounded=1;" parent="1" vertex="1">
          <mxGeometry x="-414.78999999999996" y="2527" width="106.89" height="52" as="geometry" />
        </mxCell>
        <mxCell id="jfZgl9VQ7ug2rSFrn5c--12" value="否" style="edgeStyle=orthogonalEdgeStyle;orthogonalLoop=1;jettySize=auto;html=1;exitX=0;exitY=0.5;exitDx=0;exitDy=0;" parent="1" source="jfZgl9VQ7ug2rSFrn5c--1" target="jfZgl9VQ7ug2rSFrn5c--9" edge="1">
          <mxGeometry relative="1" as="geometry" />
        </mxCell>
        <mxCell id="jfZgl9VQ7ug2rSFrn5c--63" style="edgeStyle=orthogonalEdgeStyle;orthogonalLoop=1;jettySize=auto;html=1;exitX=1;exitY=0.5;exitDx=0;exitDy=0;entryX=0.5;entryY=0;entryDx=0;entryDy=0;" parent="1" source="jfZgl9VQ7ug2rSFrn5c--1" target="teWDPq3EOm9InXgKCln7-92" edge="1">
          <mxGeometry relative="1" as="geometry" />
        </mxCell>
        <mxCell id="jfZgl9VQ7ug2rSFrn5c--1" value="状态结束&lt;br&gt;|| 取消&lt;br&gt;|| 待支付" style="rhombus;whiteSpace=wrap;html=1;strokeWidth=2;rounded=1;" parent="1" vertex="1">
          <mxGeometry x="340.12" y="680" width="127.5" height="80" as="geometry" />
        </mxCell>
        <mxCell id="jfZgl9VQ7ug2rSFrn5c--6" value="状态为激活或冻结的合约才需要取消" style="shape=callout;whiteSpace=wrap;html=1;perimeter=calloutPerimeter;fillColor=#FFFFFF;position2=1;rounded=1;" parent="1" vertex="1">
          <mxGeometry x="173.62" y="650" width="166.5" height="72.5" as="geometry" />
        </mxCell>
        <mxCell id="jfZgl9VQ7ug2rSFrn5c--17" value="是" style="edgeStyle=orthogonalEdgeStyle;orthogonalLoop=1;jettySize=auto;html=1;exitX=1;exitY=0.5;exitDx=0;exitDy=0;entryX=0;entryY=0.5;entryDx=0;entryDy=0;" parent="1" source="jfZgl9VQ7ug2rSFrn5c--7" target="jfZgl9VQ7ug2rSFrn5c--15" edge="1">
          <mxGeometry relative="1" as="geometry" />
        </mxCell>
        <mxCell id="jfZgl9VQ7ug2rSFrn5c--20" style="edgeStyle=orthogonalEdgeStyle;orthogonalLoop=1;jettySize=auto;html=1;exitX=0.5;exitY=1;exitDx=0;exitDy=0;entryX=0.5;entryY=0;entryDx=0;entryDy=0;" parent="1" source="jfZgl9VQ7ug2rSFrn5c--7" target="jfZgl9VQ7ug2rSFrn5c--13" edge="1">
          <mxGeometry relative="1" as="geometry" />
        </mxCell>
        <mxCell id="jfZgl9VQ7ug2rSFrn5c--21" value="否" style="edgeLabel;html=1;align=center;verticalAlign=middle;resizable=0;points=[];rounded=1;" parent="jfZgl9VQ7ug2rSFrn5c--20" vertex="1" connectable="0">
          <mxGeometry x="-0.264" y="1" relative="1" as="geometry">
            <mxPoint as="offset" />
          </mxGeometry>
        </mxCell>
        <mxCell id="jfZgl9VQ7ug2rSFrn5c--7" value="合约状态normal" style="rhombus;whiteSpace=wrap;html=1;strokeWidth=2;rounded=1;" parent="1" vertex="1">
          <mxGeometry x="145.62" y="800" width="105" height="70" as="geometry" />
        </mxCell>
        <mxCell id="jfZgl9VQ7ug2rSFrn5c--62" style="edgeStyle=orthogonalEdgeStyle;orthogonalLoop=1;jettySize=auto;html=1;entryX=0.5;entryY=0;entryDx=0;entryDy=0;" parent="1" source="jfZgl9VQ7ug2rSFrn5c--8" target="teWDPq3EOm9InXgKCln7-92" edge="1">
          <mxGeometry relative="1" as="geometry" />
        </mxCell>
        <mxCell id="jfZgl9VQ7ug2rSFrn5c--8" value="合约状态流转为赠送期" style="whiteSpace=wrap;html=1;strokeWidth=2;rounded=1;" parent="1" vertex="1">
          <mxGeometry x="546.29" y="810" width="96.33" height="50" as="geometry" />
        </mxCell>
        <mxCell id="jfZgl9VQ7ug2rSFrn5c--16" value="否" style="edgeStyle=orthogonalEdgeStyle;orthogonalLoop=1;jettySize=auto;html=1;exitX=1;exitY=0.5;exitDx=0;exitDy=0;entryX=0;entryY=0.5;entryDx=0;entryDy=0;" parent="1" source="jfZgl9VQ7ug2rSFrn5c--9" target="jfZgl9VQ7ug2rSFrn5c--7" edge="1">
          <mxGeometry relative="1" as="geometry" />
        </mxCell>
        <mxCell id="jfZgl9VQ7ug2rSFrn5c--18" value="是" style="edgeStyle=orthogonalEdgeStyle;orthogonalLoop=1;jettySize=auto;html=1;exitX=0.5;exitY=1;exitDx=0;exitDy=0;" parent="1" source="jfZgl9VQ7ug2rSFrn5c--9" target="jfZgl9VQ7ug2rSFrn5c--13" edge="1">
          <mxGeometry relative="1" as="geometry" />
        </mxCell>
        <mxCell id="jfZgl9VQ7ug2rSFrn5c--9" value="定时任务结束赠送期" style="rhombus;whiteSpace=wrap;html=1;strokeWidth=2;rounded=1;" parent="1" vertex="1">
          <mxGeometry x="-85" y="800" width="121.25" height="70" as="geometry" />
        </mxCell>
        <mxCell id="jfZgl9VQ7ug2rSFrn5c--31" style="edgeStyle=orthogonalEdgeStyle;orthogonalLoop=1;jettySize=auto;html=1;entryX=0;entryY=0.5;entryDx=0;entryDy=0;" parent="1" source="jfZgl9VQ7ug2rSFrn5c--13" target="jfZgl9VQ7ug2rSFrn5c--30" edge="1">
          <mxGeometry relative="1" as="geometry">
            <mxPoint x="102.71000000000015" y="1054" as="targetPoint" />
          </mxGeometry>
        </mxCell>
        <mxCell id="jfZgl9VQ7ug2rSFrn5c--13" value="合约状态流转为&lt;br&gt;finish" style="whiteSpace=wrap;html=1;strokeWidth=2;rounded=1;" parent="1" vertex="1">
          <mxGeometry x="-70.62" y="1010" width="92.5" height="50" as="geometry" />
        </mxCell>
        <mxCell id="jfZgl9VQ7ug2rSFrn5c--23" value="是" style="edgeStyle=orthogonalEdgeStyle;orthogonalLoop=1;jettySize=auto;html=1;exitX=1;exitY=0.5;exitDx=0;exitDy=0;entryX=0;entryY=0.5;entryDx=0;entryDy=0;" parent="1" source="jfZgl9VQ7ug2rSFrn5c--15" target="jfZgl9VQ7ug2rSFrn5c--8" edge="1">
          <mxGeometry relative="1" as="geometry" />
        </mxCell>
        <mxCell id="jfZgl9VQ7ug2rSFrn5c--29" style="edgeStyle=orthogonalEdgeStyle;orthogonalLoop=1;jettySize=auto;html=1;exitX=0.5;exitY=1;exitDx=0;exitDy=0;entryX=0.5;entryY=0;entryDx=0;entryDy=0;" parent="1" source="jfZgl9VQ7ug2rSFrn5c--15" target="jfZgl9VQ7ug2rSFrn5c--13" edge="1">
          <mxGeometry relative="1" as="geometry" />
        </mxCell>
        <mxCell id="jfZgl9VQ7ug2rSFrn5c--15" value="是否有赠送天" style="rhombus;whiteSpace=wrap;html=1;strokeWidth=2;rounded=1;" parent="1" vertex="1">
          <mxGeometry x="340.12" y="800" width="105" height="70" as="geometry" />
        </mxCell>
        <mxCell id="jfZgl9VQ7ug2rSFrn5c--47" value="否" style="edgeStyle=orthogonalEdgeStyle;orthogonalLoop=1;jettySize=auto;html=1;exitX=0.5;exitY=1;exitDx=0;exitDy=0;" parent="1" source="jfZgl9VQ7ug2rSFrn5c--30" target="jfZgl9VQ7ug2rSFrn5c--32" edge="1">
          <mxGeometry relative="1" as="geometry" />
        </mxCell>
        <mxCell id="jfZgl9VQ7ug2rSFrn5c--53" style="edgeStyle=orthogonalEdgeStyle;orthogonalLoop=1;jettySize=auto;html=1;exitX=1;exitY=0.5;exitDx=0;exitDy=0;entryX=0.5;entryY=0;entryDx=0;entryDy=0;" parent="1" source="jfZgl9VQ7ug2rSFrn5c--30" target="teWDPq3EOm9InXgKCln7-92" edge="1">
          <mxGeometry relative="1" as="geometry" />
        </mxCell>
        <mxCell id="jfZgl9VQ7ug2rSFrn5c--30" value="试用套餐" style="rhombus;whiteSpace=wrap;html=1;strokeWidth=2;rounded=1;" parent="1" vertex="1">
          <mxGeometry x="112.62" y="1000" width="115" height="70" as="geometry" />
        </mxCell>
        <mxCell id="jfZgl9VQ7ug2rSFrn5c--50" style="orthogonalLoop=1;jettySize=auto;html=1;exitX=1;exitY=0.5;exitDx=0;exitDy=0;entryX=0;entryY=0.5;entryDx=0;entryDy=0;edgeStyle=orthogonalEdgeStyle;" parent="1" source="jfZgl9VQ7ug2rSFrn5c--32" target="teWDPq3EOm9InXgKCln7-72" edge="1">
          <mxGeometry relative="1" as="geometry" />
        </mxCell>
        <mxCell id="jfZgl9VQ7ug2rSFrn5c--32" value="执行订阅计划" style="whiteSpace=wrap;html=1;strokeWidth=2;rounded=1;" parent="1" vertex="1">
          <mxGeometry x="-67.38" y="1110" width="105" height="45" as="geometry" />
        </mxCell>
        <mxCell id="wxt9IOkUhSoqVQ1btQjg-54" style="edgeStyle=orthogonalEdgeStyle;rounded=1;orthogonalLoop=1;jettySize=auto;html=1;exitX=0;exitY=0.5;exitDx=0;exitDy=0;" edge="1" parent="1" source="wxt9IOkUhSoqVQ1btQjg-51" target="wxt9IOkUhSoqVQ1btQjg-55">
          <mxGeometry relative="1" as="geometry">
            <mxPoint x="-520" y="718" as="targetPoint" />
          </mxGeometry>
        </mxCell>
        <mxCell id="wxt9IOkUhSoqVQ1btQjg-51" value="结算旧的合约" style="whiteSpace=wrap;html=1;strokeWidth=2;rounded=1;" vertex="1" parent="1">
          <mxGeometry x="-399.3799999999998" y="692.5" width="107.51" height="50" as="geometry" />
        </mxCell>
        <mxCell id="wxt9IOkUhSoqVQ1btQjg-58" style="edgeStyle=orthogonalEdgeStyle;rounded=1;orthogonalLoop=1;jettySize=auto;html=1;exitX=0;exitY=0.5;exitDx=0;exitDy=0;" edge="1" parent="1" source="wxt9IOkUhSoqVQ1btQjg-55" target="wxt9IOkUhSoqVQ1btQjg-57">
          <mxGeometry relative="1" as="geometry" />
        </mxCell>
        <mxCell id="wxt9IOkUhSoqVQ1btQjg-55" value="结束试用套餐" style="whiteSpace=wrap;html=1;strokeWidth=2;rounded=1;" vertex="1" parent="1">
          <mxGeometry x="-637.6999999999998" y="692.5" width="107.51" height="50" as="geometry" />
        </mxCell>
        <mxCell id="wxt9IOkUhSoqVQ1btQjg-60" value="" style="edgeStyle=orthogonalEdgeStyle;rounded=1;orthogonalLoop=1;jettySize=auto;html=1;entryX=0;entryY=0.5;entryDx=0;entryDy=0;exitX=0.5;exitY=1;exitDx=0;exitDy=0;" edge="1" parent="1" source="wxt9IOkUhSoqVQ1btQjg-57" target="wxt9IOkUhSoqVQ1btQjg-61">
          <mxGeometry relative="1" as="geometry" />
        </mxCell>
        <mxCell id="wxt9IOkUhSoqVQ1btQjg-57" value="查询用户已激活的合约" style="whiteSpace=wrap;html=1;strokeWidth=2;rounded=1;" vertex="1" parent="1">
          <mxGeometry x="-824.9999999999998" y="692.5" width="107.51" height="50" as="geometry" />
        </mxCell>
        <mxCell id="wxt9IOkUhSoqVQ1btQjg-75" value="" style="edgeStyle=orthogonalEdgeStyle;rounded=1;orthogonalLoop=1;jettySize=auto;html=1;fontColor=#FF3333;" edge="1" parent="1" source="wxt9IOkUhSoqVQ1btQjg-59" target="wxt9IOkUhSoqVQ1btQjg-74">
          <mxGeometry relative="1" as="geometry" />
        </mxCell>
        <mxCell id="wxt9IOkUhSoqVQ1btQjg-59" value="修改之前合约状态完成" style="whiteSpace=wrap;html=1;strokeWidth=2;rounded=1;" vertex="1" parent="1">
          <mxGeometry x="-824.9999999999998" y="872.5" width="107.51" height="50" as="geometry" />
        </mxCell>
        <mxCell id="wxt9IOkUhSoqVQ1btQjg-62" style="edgeStyle=orthogonalEdgeStyle;rounded=1;orthogonalLoop=1;jettySize=auto;html=1;exitX=0.5;exitY=1;exitDx=0;exitDy=0;entryX=1;entryY=0.5;entryDx=0;entryDy=0;" edge="1" parent="1" source="wxt9IOkUhSoqVQ1btQjg-61" target="wxt9IOkUhSoqVQ1btQjg-59">
          <mxGeometry relative="1" as="geometry" />
        </mxCell>
        <mxCell id="wxt9IOkUhSoqVQ1btQjg-64" value="" style="edgeStyle=orthogonalEdgeStyle;rounded=1;orthogonalLoop=1;jettySize=auto;html=1;" edge="1" parent="1" source="wxt9IOkUhSoqVQ1btQjg-61" target="wxt9IOkUhSoqVQ1btQjg-63">
          <mxGeometry relative="1" as="geometry" />
        </mxCell>
        <mxCell id="wxt9IOkUhSoqVQ1btQjg-61" value="激活合约是否是&lt;br&gt;订阅计划或者配发套餐" style="rhombus;whiteSpace=wrap;html=1;strokeWidth=2;rounded=1;" vertex="1" parent="1">
          <mxGeometry x="-641.25" y="770" width="121.25" height="80" as="geometry" />
        </mxCell>
        <mxCell id="wxt9IOkUhSoqVQ1btQjg-87" style="edgeStyle=orthogonalEdgeStyle;rounded=1;orthogonalLoop=1;jettySize=auto;html=1;exitX=1;exitY=0.5;exitDx=0;exitDy=0;entryX=1;entryY=0.5;entryDx=0;entryDy=0;fontColor=#FF3333;" edge="1" parent="1" source="wxt9IOkUhSoqVQ1btQjg-63" target="wxt9IOkUhSoqVQ1btQjg-84">
          <mxGeometry relative="1" as="geometry" />
        </mxCell>
        <mxCell id="wxt9IOkUhSoqVQ1btQjg-63" value="重复支付异常" style="whiteSpace=wrap;html=1;rounded=1;strokeWidth=2;" vertex="1" parent="1">
          <mxGeometry x="-399.38" y="785" width="109.38" height="50" as="geometry" />
        </mxCell>
        <mxCell id="wxt9IOkUhSoqVQ1btQjg-68" style="edgeStyle=orthogonalEdgeStyle;rounded=1;orthogonalLoop=1;jettySize=auto;html=1;exitX=1;exitY=0.5;exitDx=0;exitDy=0;entryX=0;entryY=0.5;entryDx=0;entryDy=0;fontColor=#FF3333;" edge="1" parent="1" source="wxt9IOkUhSoqVQ1btQjg-65" target="wxt9IOkUhSoqVQ1btQjg-67">
          <mxGeometry relative="1" as="geometry" />
        </mxCell>
        <mxCell id="wxt9IOkUhSoqVQ1btQjg-65" value="&lt;b&gt;&lt;font color=&quot;#ff3333&quot;&gt;计算之前的合约剩余天数赠送到现在的合约&lt;/font&gt;&lt;/b&gt;" style="whiteSpace=wrap;html=1;rounded=1;strokeWidth=2;" vertex="1" parent="1">
          <mxGeometry x="-827" y="1042.5" width="111.86" height="60" as="geometry" />
        </mxCell>
        <mxCell id="wxt9IOkUhSoqVQ1btQjg-70" style="edgeStyle=orthogonalEdgeStyle;rounded=1;orthogonalLoop=1;jettySize=auto;html=1;exitX=1;exitY=0.5;exitDx=0;exitDy=0;fontColor=#FF3333;" edge="1" parent="1" source="wxt9IOkUhSoqVQ1btQjg-67" target="wxt9IOkUhSoqVQ1btQjg-69">
          <mxGeometry relative="1" as="geometry" />
        </mxCell>
        <mxCell id="wxt9IOkUhSoqVQ1btQjg-67" value="更新合约状态为正常" style="whiteSpace=wrap;html=1;strokeWidth=2;rounded=1;" vertex="1" parent="1">
          <mxGeometry x="-643.9450000000002" y="1042.5" width="120" height="60" as="geometry" />
        </mxCell>
        <mxCell id="wxt9IOkUhSoqVQ1btQjg-73" value="" style="edgeStyle=orthogonalEdgeStyle;rounded=1;orthogonalLoop=1;jettySize=auto;html=1;fontColor=#FF3333;" edge="1" parent="1" source="wxt9IOkUhSoqVQ1btQjg-69" target="wxt9IOkUhSoqVQ1btQjg-72">
          <mxGeometry relative="1" as="geometry" />
        </mxCell>
        <mxCell id="wxt9IOkUhSoqVQ1btQjg-69" value="第三方激活成功处理" style="whiteSpace=wrap;html=1;strokeWidth=2;rounded=1;" vertex="1" parent="1">
          <mxGeometry x="-440.0050000000001" y="1042.5" width="120" height="60" as="geometry" />
        </mxCell>
        <mxCell id="wxt9IOkUhSoqVQ1btQjg-71" value="stripe修改默认支付方式" style="shape=callout;whiteSpace=wrap;html=1;perimeter=calloutPerimeter;rounded=1;fontColor=#FF3333;position2=0.67;" vertex="1" parent="1">
          <mxGeometry x="-460" y="947.5" width="120" height="80" as="geometry" />
        </mxCell>
        <mxCell id="wxt9IOkUhSoqVQ1btQjg-79" style="edgeStyle=orthogonalEdgeStyle;rounded=1;orthogonalLoop=1;jettySize=auto;html=1;exitX=0;exitY=0.5;exitDx=0;exitDy=0;entryX=0.5;entryY=0;entryDx=0;entryDy=0;fontColor=#FF3333;" edge="1" parent="1" source="wxt9IOkUhSoqVQ1btQjg-72" target="wxt9IOkUhSoqVQ1btQjg-78">
          <mxGeometry relative="1" as="geometry" />
        </mxCell>
        <mxCell id="wxt9IOkUhSoqVQ1btQjg-72" value="自动创建下一期&lt;br&gt;合约计划" style="whiteSpace=wrap;html=1;strokeWidth=2;rounded=1;" vertex="1" parent="1">
          <mxGeometry x="-440.0050000000001" y="1167.5" width="120" height="60" as="geometry" />
        </mxCell>
        <mxCell id="wxt9IOkUhSoqVQ1btQjg-76" style="edgeStyle=orthogonalEdgeStyle;rounded=1;orthogonalLoop=1;jettySize=auto;html=1;exitX=0.5;exitY=1;exitDx=0;exitDy=0;fontColor=#FF3333;" edge="1" parent="1" source="wxt9IOkUhSoqVQ1btQjg-74" target="wxt9IOkUhSoqVQ1btQjg-65">
          <mxGeometry relative="1" as="geometry" />
        </mxCell>
        <mxCell id="wxt9IOkUhSoqVQ1btQjg-74" value="推送合约取消&lt;br&gt;去除权限" style="whiteSpace=wrap;html=1;strokeWidth=2;rounded=1;" vertex="1" parent="1">
          <mxGeometry x="-824.8299999999998" y="962.5" width="107.51" height="50" as="geometry" />
        </mxCell>
        <mxCell id="wxt9IOkUhSoqVQ1btQjg-86" style="edgeStyle=orthogonalEdgeStyle;rounded=1;orthogonalLoop=1;jettySize=auto;html=1;exitX=0.5;exitY=1;exitDx=0;exitDy=0;fontColor=#FF3333;" edge="1" parent="1" source="wxt9IOkUhSoqVQ1btQjg-77" target="wxt9IOkUhSoqVQ1btQjg-84">
          <mxGeometry relative="1" as="geometry" />
        </mxCell>
        <mxCell id="wxt9IOkUhSoqVQ1btQjg-77" value="发送合约激活事件&lt;br&gt;激活对应权限" style="whiteSpace=wrap;html=1;strokeWidth=2;rounded=1;" vertex="1" parent="1">
          <mxGeometry x="-440.0099999999999" y="1260" width="120" height="60" as="geometry" />
        </mxCell>
        <mxCell id="wxt9IOkUhSoqVQ1btQjg-80" style="edgeStyle=orthogonalEdgeStyle;rounded=1;orthogonalLoop=1;jettySize=auto;html=1;exitX=1;exitY=0.5;exitDx=0;exitDy=0;entryX=0;entryY=0.5;entryDx=0;entryDy=0;fontColor=#FF3333;" edge="1" parent="1" source="wxt9IOkUhSoqVQ1btQjg-78" target="wxt9IOkUhSoqVQ1btQjg-77">
          <mxGeometry relative="1" as="geometry" />
        </mxCell>
        <mxCell id="wxt9IOkUhSoqVQ1btQjg-81" value="是" style="edgeLabel;html=1;align=center;verticalAlign=middle;resizable=0;points=[];fontColor=#FF3333;" vertex="1" connectable="0" parent="wxt9IOkUhSoqVQ1btQjg-80">
          <mxGeometry x="-0.2314" y="-1" relative="1" as="geometry">
            <mxPoint as="offset" />
          </mxGeometry>
        </mxCell>
        <mxCell id="wxt9IOkUhSoqVQ1btQjg-83" style="edgeStyle=orthogonalEdgeStyle;rounded=1;orthogonalLoop=1;jettySize=auto;html=1;exitX=0.5;exitY=1;exitDx=0;exitDy=0;fontColor=#FF3333;" edge="1" parent="1" source="wxt9IOkUhSoqVQ1btQjg-78" target="wxt9IOkUhSoqVQ1btQjg-82">
          <mxGeometry relative="1" as="geometry" />
        </mxCell>
        <mxCell id="wxt9IOkUhSoqVQ1btQjg-78" value="合约是否优惠" style="rhombus;whiteSpace=wrap;html=1;strokeWidth=2;rounded=1;" vertex="1" parent="1">
          <mxGeometry x="-838.1299999999999" y="1250" width="116.26" height="80" as="geometry" />
        </mxCell>
        <mxCell id="wxt9IOkUhSoqVQ1btQjg-85" style="edgeStyle=orthogonalEdgeStyle;rounded=1;orthogonalLoop=1;jettySize=auto;html=1;exitX=1;exitY=0.5;exitDx=0;exitDy=0;fontColor=#FF3333;" edge="1" parent="1" source="wxt9IOkUhSoqVQ1btQjg-82" target="wxt9IOkUhSoqVQ1btQjg-84">
          <mxGeometry relative="1" as="geometry" />
        </mxCell>
        <mxCell id="wxt9IOkUhSoqVQ1btQjg-82" value="核销优惠券" style="whiteSpace=wrap;html=1;strokeWidth=2;rounded=1;" vertex="1" parent="1">
          <mxGeometry x="-839.9999999999998" y="1393.5" width="120" height="60" as="geometry" />
        </mxCell>
        <mxCell id="wxt9IOkUhSoqVQ1btQjg-84" value="结束" style="ellipse;whiteSpace=wrap;html=1;strokeWidth=2;rounded=1;" vertex="1" parent="1">
          <mxGeometry x="-430.01" y="1396" width="100" height="55" as="geometry" />
        </mxCell>
        <mxCell id="wxt9IOkUhSoqVQ1btQjg-92" value="&lt;font color=&quot;#000000&quot; style=&quot;font-size: 18px&quot;&gt;finish合约&lt;/font&gt;" style="text;html=1;align=center;verticalAlign=middle;resizable=0;points=[];autosize=1;strokeColor=none;fillColor=none;fontColor=#FF3333;" vertex="1" parent="1">
          <mxGeometry x="-65" y="500" width="90" height="20" as="geometry" />
        </mxCell>
        <mxCell id="wxt9IOkUhSoqVQ1btQjg-93" value="active合约" style="text;html=1;align=center;verticalAlign=middle;resizable=0;points=[];autosize=1;strokeColor=none;fillColor=none;fontSize=18;fontColor=#000000;" vertex="1" parent="1">
          <mxGeometry x="-870" y="500" width="100" height="30" as="geometry" />
        </mxCell>
      </root>
    </mxGraphModel>
  </diagram>
  <diagram id="tmlLystI45tfv5OgCZJf" name="第 2 页">
    <mxGraphModel dx="2702" dy="866" grid="1" gridSize="10" guides="1" tooltips="1" connect="1" arrows="1" fold="1" page="1" pageScale="1" pageWidth="827" pageHeight="1169" math="0" shadow="0">
      <root>
        <mxCell id="pTULu_7jKwkQUmA8zQsq-0" />
        <mxCell id="pTULu_7jKwkQUmA8zQsq-1" parent="pTULu_7jKwkQUmA8zQsq-0" />
        <mxCell id="pTULu_7jKwkQUmA8zQsq-7" style="edgeStyle=orthogonalEdgeStyle;rounded=1;orthogonalLoop=1;jettySize=auto;html=1;exitX=1;exitY=0.5;exitDx=0;exitDy=0;fontSize=18;fontColor=#000000;" edge="1" parent="pTULu_7jKwkQUmA8zQsq-1" source="pTULu_7jKwkQUmA8zQsq-2" target="pTULu_7jKwkQUmA8zQsq-6">
          <mxGeometry relative="1" as="geometry" />
        </mxCell>
        <mxCell id="pTULu_7jKwkQUmA8zQsq-8" value="&lt;font size=&quot;3&quot;&gt;xxl&lt;/font&gt;" style="edgeLabel;html=1;align=center;verticalAlign=middle;resizable=0;points=[];fontSize=18;fontColor=#000000;" vertex="1" connectable="0" parent="pTULu_7jKwkQUmA8zQsq-7">
          <mxGeometry x="-0.3285" relative="1" as="geometry">
            <mxPoint as="offset" />
          </mxGeometry>
        </mxCell>
        <mxCell id="pTULu_7jKwkQUmA8zQsq-2" value="Start" style="ellipse" vertex="1" parent="pTULu_7jKwkQUmA8zQsq-1">
          <mxGeometry x="35" y="110" width="90" height="40" as="geometry" />
        </mxCell>
        <mxCell id="pTULu_7jKwkQUmA8zQsq-5" value="空中云汇周期扣款" style="text;html=1;align=center;verticalAlign=middle;resizable=0;points=[];autosize=1;strokeColor=none;fillColor=none;fontSize=18;fontColor=#000000;" vertex="1" parent="pTULu_7jKwkQUmA8zQsq-1">
          <mxGeometry y="35" width="160" height="30" as="geometry" />
        </mxCell>
        <mxCell id="pTULu_7jKwkQUmA8zQsq-10" value="" style="edgeStyle=orthogonalEdgeStyle;rounded=1;orthogonalLoop=1;jettySize=auto;html=1;fontSize=12;fontColor=#000000;" edge="1" parent="pTULu_7jKwkQUmA8zQsq-1" source="pTULu_7jKwkQUmA8zQsq-6" target="pTULu_7jKwkQUmA8zQsq-9">
          <mxGeometry relative="1" as="geometry" />
        </mxCell>
        <mxCell id="pTULu_7jKwkQUmA8zQsq-6" value="&lt;font style=&quot;font-size: 12px&quot;&gt;查询空中云汇正常合约今天前需要结算的合约&lt;br&gt;&lt;/font&gt;" style="rounded=1;whiteSpace=wrap;html=1;shadow=1;fontSize=18;fontColor=#000000;fillColor=#FFFFFF;" vertex="1" parent="pTULu_7jKwkQUmA8zQsq-1">
          <mxGeometry x="210" y="100" width="110" height="60" as="geometry" />
        </mxCell>
        <mxCell id="pTULu_7jKwkQUmA8zQsq-12" value="" style="edgeStyle=orthogonalEdgeStyle;rounded=1;orthogonalLoop=1;jettySize=auto;html=1;fontSize=12;fontColor=#000000;" edge="1" parent="pTULu_7jKwkQUmA8zQsq-1" source="pTULu_7jKwkQUmA8zQsq-9" target="pTULu_7jKwkQUmA8zQsq-11">
          <mxGeometry relative="1" as="geometry" />
        </mxCell>
        <mxCell id="pTULu_7jKwkQUmA8zQsq-9" value="&lt;font style=&quot;font-size: 12px&quot;&gt;获取缓存已处理的合约&lt;br&gt;&lt;/font&gt;" style="rounded=1;whiteSpace=wrap;html=1;shadow=1;fontSize=18;fontColor=#000000;fillColor=#FFFFFF;" vertex="1" parent="pTULu_7jKwkQUmA8zQsq-1">
          <mxGeometry x="400" y="100" width="110" height="60" as="geometry" />
        </mxCell>
        <mxCell id="pTULu_7jKwkQUmA8zQsq-14" value="" style="edgeStyle=orthogonalEdgeStyle;rounded=1;orthogonalLoop=1;jettySize=auto;html=1;fontSize=12;fontColor=#000000;entryX=1;entryY=0.5;entryDx=0;entryDy=0;" edge="1" parent="pTULu_7jKwkQUmA8zQsq-1" source="pTULu_7jKwkQUmA8zQsq-11" target="pTULu_7jKwkQUmA8zQsq-13">
          <mxGeometry relative="1" as="geometry" />
        </mxCell>
        <mxCell id="pTULu_7jKwkQUmA8zQsq-11" value="&lt;font style=&quot;font-size: 12px&quot;&gt;过滤已处理合约&lt;br&gt;&lt;/font&gt;" style="rounded=1;whiteSpace=wrap;html=1;shadow=1;fontSize=18;fontColor=#000000;fillColor=#FFFFFF;" vertex="1" parent="pTULu_7jKwkQUmA8zQsq-1">
          <mxGeometry x="590" y="100" width="110" height="60" as="geometry" />
        </mxCell>
        <mxCell id="pTULu_7jKwkQUmA8zQsq-19" value="" style="edgeStyle=orthogonalEdgeStyle;rounded=1;orthogonalLoop=1;jettySize=auto;html=1;fontSize=12;fontColor=#000000;" edge="1" parent="pTULu_7jKwkQUmA8zQsq-1" source="pTULu_7jKwkQUmA8zQsq-13" target="pTULu_7jKwkQUmA8zQsq-18">
          <mxGeometry relative="1" as="geometry" />
        </mxCell>
        <mxCell id="pTULu_7jKwkQUmA8zQsq-13" value="&lt;font style=&quot;font-size: 12px&quot;&gt;循环每个合约&lt;/font&gt;" style="rounded=1;whiteSpace=wrap;html=1;shadow=1;fontSize=18;fontColor=#000000;fillColor=#FFFFFF;" vertex="1" parent="pTULu_7jKwkQUmA8zQsq-1">
          <mxGeometry x="500" y="230" width="110" height="60" as="geometry" />
        </mxCell>
        <mxCell id="pTULu_7jKwkQUmA8zQsq-23" value="未生成" style="edgeStyle=orthogonalEdgeStyle;rounded=1;orthogonalLoop=1;jettySize=auto;html=1;exitX=0;exitY=0.5;exitDx=0;exitDy=0;entryX=1;entryY=0.5;entryDx=0;entryDy=0;fontSize=12;fontColor=#000000;" edge="1" parent="pTULu_7jKwkQUmA8zQsq-1" source="pTULu_7jKwkQUmA8zQsq-18" target="pTULu_7jKwkQUmA8zQsq-20">
          <mxGeometry relative="1" as="geometry" />
        </mxCell>
        <mxCell id="pTULu_7jKwkQUmA8zQsq-27" style="edgeStyle=orthogonalEdgeStyle;rounded=1;orthogonalLoop=1;jettySize=auto;html=1;exitX=0.5;exitY=1;exitDx=0;exitDy=0;entryX=0;entryY=0.5;entryDx=0;entryDy=0;fontSize=12;fontColor=#000000;" edge="1" parent="pTULu_7jKwkQUmA8zQsq-1" source="pTULu_7jKwkQUmA8zQsq-18" target="pTULu_7jKwkQUmA8zQsq-22">
          <mxGeometry relative="1" as="geometry" />
        </mxCell>
        <mxCell id="pTULu_7jKwkQUmA8zQsq-18" value="&lt;font style=&quot;font-size: 12px&quot;&gt;当前合约订单是否生成&lt;/font&gt;" style="rhombus;whiteSpace=wrap;html=1;rounded=1;shadow=1;fontSize=18;fontColor=#000000;fillColor=#FFFFFF;" vertex="1" parent="pTULu_7jKwkQUmA8zQsq-1">
          <mxGeometry x="310" y="220" width="95" height="80" as="geometry" />
        </mxCell>
        <mxCell id="pTULu_7jKwkQUmA8zQsq-25" value="" style="edgeStyle=orthogonalEdgeStyle;rounded=1;orthogonalLoop=1;jettySize=auto;html=1;fontSize=12;fontColor=#000000;" edge="1" parent="pTULu_7jKwkQUmA8zQsq-1" source="pTULu_7jKwkQUmA8zQsq-20" target="pTULu_7jKwkQUmA8zQsq-24">
          <mxGeometry relative="1" as="geometry" />
        </mxCell>
        <mxCell id="pTULu_7jKwkQUmA8zQsq-20" value="&lt;font style=&quot;font-size: 12px&quot;&gt;生成订单&lt;/font&gt;" style="whiteSpace=wrap;html=1;rounded=1;shadow=1;fontSize=18;fontColor=#000000;fillColor=#FFFFFF;" vertex="1" parent="pTULu_7jKwkQUmA8zQsq-1">
          <mxGeometry x="70" y="230" width="112.5" height="60" as="geometry" />
        </mxCell>
        <mxCell id="pTULu_7jKwkQUmA8zQsq-22" value="结束" style="ellipse" vertex="1" parent="pTULu_7jKwkQUmA8zQsq-1">
          <mxGeometry x="600" y="370" width="90" height="40" as="geometry" />
        </mxCell>
        <mxCell id="pTULu_7jKwkQUmA8zQsq-26" style="edgeStyle=orthogonalEdgeStyle;rounded=1;orthogonalLoop=1;jettySize=auto;html=1;exitX=1;exitY=0.5;exitDx=0;exitDy=0;entryX=0;entryY=0.5;entryDx=0;entryDy=0;fontSize=12;fontColor=#000000;" edge="1" parent="pTULu_7jKwkQUmA8zQsq-1" source="pTULu_7jKwkQUmA8zQsq-24" target="pTULu_7jKwkQUmA8zQsq-22">
          <mxGeometry relative="1" as="geometry" />
        </mxCell>
        <mxCell id="pTULu_7jKwkQUmA8zQsq-24" value="&lt;font style=&quot;font-size: 12px&quot;&gt;缓存生成单的合约&lt;/font&gt;" style="whiteSpace=wrap;html=1;rounded=1;shadow=1;fontSize=18;fontColor=#000000;fillColor=#FFFFFF;" vertex="1" parent="pTULu_7jKwkQUmA8zQsq-1">
          <mxGeometry x="70" y="360" width="112.5" height="60" as="geometry" />
        </mxCell>
        <mxCell id="1_rO8h4SH2P5vmLEIMqP-0" value="空中云汇取消结算合约" style="text;html=1;align=center;verticalAlign=middle;resizable=0;points=[];autosize=1;strokeColor=none;fillColor=none;fontSize=18;fontColor=#000000;" vertex="1" parent="pTULu_7jKwkQUmA8zQsq-1">
          <mxGeometry x="-10" y="480" width="200" height="30" as="geometry" />
        </mxCell>
        <mxCell id="1_rO8h4SH2P5vmLEIMqP-3" value="取消事件" style="edgeStyle=orthogonalEdgeStyle;rounded=1;orthogonalLoop=1;jettySize=auto;html=1;fontSize=12;fontColor=#000000;entryX=0;entryY=0.5;entryDx=0;entryDy=0;" edge="1" parent="pTULu_7jKwkQUmA8zQsq-1" source="1_rO8h4SH2P5vmLEIMqP-1" target="1_rO8h4SH2P5vmLEIMqP-4">
          <mxGeometry relative="1" as="geometry">
            <mxPoint x="250" y="590" as="targetPoint" />
          </mxGeometry>
        </mxCell>
        <mxCell id="1_rO8h4SH2P5vmLEIMqP-1" value="Start" style="ellipse" vertex="1" parent="pTULu_7jKwkQUmA8zQsq-1">
          <mxGeometry x="35" y="570" width="90" height="40" as="geometry" />
        </mxCell>
        <mxCell id="1_rO8h4SH2P5vmLEIMqP-14" value="否" style="edgeStyle=orthogonalEdgeStyle;rounded=1;orthogonalLoop=1;jettySize=auto;html=1;exitX=1;exitY=0.5;exitDx=0;exitDy=0;entryX=0;entryY=0.5;entryDx=0;entryDy=0;fontSize=12;fontColor=#000000;" edge="1" parent="pTULu_7jKwkQUmA8zQsq-1" source="1_rO8h4SH2P5vmLEIMqP-4" target="1_rO8h4SH2P5vmLEIMqP-6">
          <mxGeometry relative="1" as="geometry" />
        </mxCell>
        <mxCell id="1_rO8h4SH2P5vmLEIMqP-16" style="edgeStyle=orthogonalEdgeStyle;rounded=1;orthogonalLoop=1;jettySize=auto;html=1;exitX=0.5;exitY=1;exitDx=0;exitDy=0;entryX=0.5;entryY=0;entryDx=0;entryDy=0;fontSize=12;fontColor=#000000;" edge="1" parent="pTULu_7jKwkQUmA8zQsq-1" source="1_rO8h4SH2P5vmLEIMqP-4" target="1_rO8h4SH2P5vmLEIMqP-5">
          <mxGeometry relative="1" as="geometry" />
        </mxCell>
        <mxCell id="1_rO8h4SH2P5vmLEIMqP-4" value="待支付合约&lt;br&gt;|| 试用合约&lt;br&gt;|| 百万扶持套餐" style="rhombus;whiteSpace=wrap;html=1;rounded=1;shadow=1;fontSize=12;fontColor=#000000;fillColor=#FFFFFF;" vertex="1" parent="pTULu_7jKwkQUmA8zQsq-1">
          <mxGeometry x="260" y="545" width="130" height="90" as="geometry" />
        </mxCell>
        <mxCell id="1_rO8h4SH2P5vmLEIMqP-5" value="结束" style="ellipse" vertex="1" parent="pTULu_7jKwkQUmA8zQsq-1">
          <mxGeometry x="280" y="930" width="90" height="50" as="geometry" />
        </mxCell>
        <mxCell id="1_rO8h4SH2P5vmLEIMqP-15" value="否" style="edgeStyle=orthogonalEdgeStyle;rounded=1;orthogonalLoop=1;jettySize=auto;html=1;exitX=1;exitY=0.5;exitDx=0;exitDy=0;fontSize=12;fontColor=#000000;" edge="1" parent="pTULu_7jKwkQUmA8zQsq-1" source="1_rO8h4SH2P5vmLEIMqP-6" target="1_rO8h4SH2P5vmLEIMqP-10">
          <mxGeometry relative="1" as="geometry" />
        </mxCell>
        <mxCell id="1_rO8h4SH2P5vmLEIMqP-17" style="edgeStyle=orthogonalEdgeStyle;rounded=1;orthogonalLoop=1;jettySize=auto;html=1;exitX=0.5;exitY=1;exitDx=0;exitDy=0;fontSize=12;fontColor=#000000;entryX=0.5;entryY=0;entryDx=0;entryDy=0;" edge="1" parent="pTULu_7jKwkQUmA8zQsq-1" source="1_rO8h4SH2P5vmLEIMqP-6" target="1_rO8h4SH2P5vmLEIMqP-5">
          <mxGeometry relative="1" as="geometry">
            <mxPoint x="480" y="710" as="targetPoint" />
          </mxGeometry>
        </mxCell>
        <mxCell id="1_rO8h4SH2P5vmLEIMqP-6" value="当前周期单是否结算" style="rhombus;whiteSpace=wrap;html=1;rounded=1;shadow=1;fontSize=12;fontColor=#000000;fillColor=#FFFFFF;" vertex="1" parent="pTULu_7jKwkQUmA8zQsq-1">
          <mxGeometry x="470" y="545" width="130" height="90" as="geometry" />
        </mxCell>
        <mxCell id="1_rO8h4SH2P5vmLEIMqP-21" value="是" style="edgeStyle=orthogonalEdgeStyle;rounded=1;orthogonalLoop=1;jettySize=auto;html=1;exitX=0.5;exitY=1;exitDx=0;exitDy=0;fontSize=12;fontColor=#000000;" edge="1" parent="pTULu_7jKwkQUmA8zQsq-1" source="1_rO8h4SH2P5vmLEIMqP-10" target="1_rO8h4SH2P5vmLEIMqP-11">
          <mxGeometry relative="1" as="geometry" />
        </mxCell>
        <mxCell id="1_rO8h4SH2P5vmLEIMqP-35" style="edgeStyle=orthogonalEdgeStyle;rounded=1;orthogonalLoop=1;jettySize=auto;html=1;exitX=1;exitY=0.5;exitDx=0;exitDy=0;entryX=1;entryY=0.5;entryDx=0;entryDy=0;fontSize=12;fontColor=#000000;" edge="1" parent="pTULu_7jKwkQUmA8zQsq-1" source="1_rO8h4SH2P5vmLEIMqP-10" target="1_rO8h4SH2P5vmLEIMqP-18">
          <mxGeometry relative="1" as="geometry" />
        </mxCell>
        <mxCell id="1_rO8h4SH2P5vmLEIMqP-36" value="不存在" style="edgeLabel;html=1;align=center;verticalAlign=middle;resizable=0;points=[];fontSize=12;fontColor=#000000;" vertex="1" connectable="0" parent="1_rO8h4SH2P5vmLEIMqP-35">
          <mxGeometry x="-0.2302" y="-2" relative="1" as="geometry">
            <mxPoint as="offset" />
          </mxGeometry>
        </mxCell>
        <mxCell id="1_rO8h4SH2P5vmLEIMqP-10" value="是否存在佣金单" style="rhombus;whiteSpace=wrap;html=1;rounded=1;shadow=1;fontSize=12;fontColor=#000000;fillColor=#FFFFFF;" vertex="1" parent="pTULu_7jKwkQUmA8zQsq-1">
          <mxGeometry x="680" y="545" width="130" height="90" as="geometry" />
        </mxCell>
        <mxCell id="1_rO8h4SH2P5vmLEIMqP-27" value="否" style="edgeStyle=orthogonalEdgeStyle;rounded=1;orthogonalLoop=1;jettySize=auto;html=1;exitX=0.5;exitY=1;exitDx=0;exitDy=0;fontSize=12;fontColor=#000000;" edge="1" parent="pTULu_7jKwkQUmA8zQsq-1" source="1_rO8h4SH2P5vmLEIMqP-11" target="1_rO8h4SH2P5vmLEIMqP-18">
          <mxGeometry relative="1" as="geometry" />
        </mxCell>
        <mxCell id="1_rO8h4SH2P5vmLEIMqP-28" value="是" style="edgeStyle=orthogonalEdgeStyle;rounded=1;orthogonalLoop=1;jettySize=auto;html=1;exitX=1;exitY=0.5;exitDx=0;exitDy=0;fontSize=12;fontColor=#000000;" edge="1" parent="pTULu_7jKwkQUmA8zQsq-1" source="1_rO8h4SH2P5vmLEIMqP-11" target="1_rO8h4SH2P5vmLEIMqP-25">
          <mxGeometry relative="1" as="geometry" />
        </mxCell>
        <mxCell id="1_rO8h4SH2P5vmLEIMqP-11" value="升级&lt;br&gt;&amp;amp;&amp;amp; 有前一个周期" style="rhombus;whiteSpace=wrap;html=1;rounded=1;shadow=1;fontSize=12;fontColor=#000000;fillColor=#FFFFFF;" vertex="1" parent="pTULu_7jKwkQUmA8zQsq-1">
          <mxGeometry x="680" y="710" width="130" height="90" as="geometry" />
        </mxCell>
        <mxCell id="1_rO8h4SH2P5vmLEIMqP-20" style="edgeStyle=orthogonalEdgeStyle;rounded=1;orthogonalLoop=1;jettySize=auto;html=1;exitX=0.5;exitY=1;exitDx=0;exitDy=0;entryX=1;entryY=0.5;entryDx=0;entryDy=0;fontSize=12;fontColor=#000000;" edge="1" parent="pTULu_7jKwkQUmA8zQsq-1" source="1_rO8h4SH2P5vmLEIMqP-18" target="1_rO8h4SH2P5vmLEIMqP-5">
          <mxGeometry relative="1" as="geometry" />
        </mxCell>
        <mxCell id="1_rO8h4SH2P5vmLEIMqP-18" value="创建待支付佣金单" style="whiteSpace=wrap;html=1;rounded=1;shadow=1;fontColor=#000000;fillColor=#FFFFFF;" vertex="1" parent="pTULu_7jKwkQUmA8zQsq-1">
          <mxGeometry x="687.5" y="850" width="115" height="60" as="geometry" />
        </mxCell>
        <mxCell id="1_rO8h4SH2P5vmLEIMqP-29" style="edgeStyle=orthogonalEdgeStyle;rounded=1;orthogonalLoop=1;jettySize=auto;html=1;exitX=0.5;exitY=1;exitDx=0;exitDy=0;entryX=1;entryY=0.5;entryDx=0;entryDy=0;fontSize=12;fontColor=#000000;" edge="1" parent="pTULu_7jKwkQUmA8zQsq-1" source="1_rO8h4SH2P5vmLEIMqP-25" target="1_rO8h4SH2P5vmLEIMqP-18">
          <mxGeometry relative="1" as="geometry" />
        </mxCell>
        <mxCell id="1_rO8h4SH2P5vmLEIMqP-30" value="生成" style="edgeLabel;html=1;align=center;verticalAlign=middle;resizable=0;points=[];fontSize=12;fontColor=#000000;" vertex="1" connectable="0" parent="1_rO8h4SH2P5vmLEIMqP-29">
          <mxGeometry x="0.0055" y="-2" relative="1" as="geometry">
            <mxPoint as="offset" />
          </mxGeometry>
        </mxCell>
        <mxCell id="1_rO8h4SH2P5vmLEIMqP-31" style="edgeStyle=orthogonalEdgeStyle;rounded=1;orthogonalLoop=1;jettySize=auto;html=1;exitX=1;exitY=0.5;exitDx=0;exitDy=0;fontSize=12;fontColor=#000000;" edge="1" parent="pTULu_7jKwkQUmA8zQsq-1" source="1_rO8h4SH2P5vmLEIMqP-25" target="1_rO8h4SH2P5vmLEIMqP-32">
          <mxGeometry relative="1" as="geometry">
            <mxPoint x="1090" y="755" as="targetPoint" />
          </mxGeometry>
        </mxCell>
        <mxCell id="1_rO8h4SH2P5vmLEIMqP-34" value="否" style="edgeLabel;html=1;align=center;verticalAlign=middle;resizable=0;points=[];fontSize=12;fontColor=#000000;" vertex="1" connectable="0" parent="1_rO8h4SH2P5vmLEIMqP-31">
          <mxGeometry x="-0.425" y="-1" relative="1" as="geometry">
            <mxPoint as="offset" />
          </mxGeometry>
        </mxCell>
        <mxCell id="1_rO8h4SH2P5vmLEIMqP-25" value="&lt;span&gt;检查前一个周期单是否生成&lt;/span&gt;" style="rhombus;whiteSpace=wrap;html=1;rounded=1;shadow=1;fontSize=12;fontColor=#000000;fillColor=#FFFFFF;" vertex="1" parent="pTULu_7jKwkQUmA8zQsq-1">
          <mxGeometry x="900" y="710" width="130" height="90" as="geometry" />
        </mxCell>
        <mxCell id="1_rO8h4SH2P5vmLEIMqP-33" style="edgeStyle=orthogonalEdgeStyle;rounded=1;orthogonalLoop=1;jettySize=auto;html=1;exitX=0.5;exitY=1;exitDx=0;exitDy=0;entryX=1;entryY=0.5;entryDx=0;entryDy=0;fontSize=12;fontColor=#000000;" edge="1" parent="pTULu_7jKwkQUmA8zQsq-1" source="1_rO8h4SH2P5vmLEIMqP-32" target="1_rO8h4SH2P5vmLEIMqP-5">
          <mxGeometry relative="1" as="geometry" />
        </mxCell>
        <mxCell id="1_rO8h4SH2P5vmLEIMqP-32" value="上一周期单未生成异常" style="whiteSpace=wrap;html=1;rounded=1;shadow=1;fontColor=#000000;fillColor=#FFFFFF;" vertex="1" parent="pTULu_7jKwkQUmA8zQsq-1">
          <mxGeometry x="1040" y="840" width="120" height="60" as="geometry" />
        </mxCell>
      </root>
    </mxGraphModel>
  </diagram>
</mxfile>
